<?xml version="1.0" encoding="UTF-8" standalone="no"?>
<!-- Created with Inkscape (http://www.inkscape.org/) -->

<svg
   version="1.1"
   id="svg2"
   xml:space="preserve"
   width="382.66666"
   height="390.66666"
   viewBox="0 0 382.66666 390.66666"
   sodipodi:docname="white.svg"
   inkscape:version="1.1.2 (0a00cf5339, 2022-02-04)"
   xmlns:inkscape="http://www.inkscape.org/namespaces/inkscape"
   xmlns:sodipodi="http://sodipodi.sourceforge.net/DTD/sodipodi-0.dtd"
   xmlns="http://www.w3.org/2000/svg"
   xmlns:svg="http://www.w3.org/2000/svg"><defs
     id="defs6" /><sodipodi:namedview
     id="namedview4"
     pagecolor="#ffffff"
     bordercolor="#666666"
     borderopacity="1.0"
     inkscape:pageshadow="2"
     inkscape:pageopacity="0.0"
     inkscape:pagecheckerboard="0"
     showgrid="false"
     inkscape:zoom="1.9121161"
     inkscape:cx="191.14948"
     inkscape:cy="237.17179"
     inkscape:window-width="2560"
     inkscape:window-height="1011"
     inkscape:window-x="0"
     inkscape:window-y="0"
     inkscape:window-maximized="1"
     inkscape:current-layer="g8" /><g
     id="g8"
     inkscape:groupmode="layer"
     inkscape:label="cherubino_black"
     transform="matrix(1.3333333,0,0,-1.3333333,0,390.66667)"><path
       d="m 101.723,15.048 4.154,12.49 -7.278,0.939 0.379,1.138 c 2.775,-0.05 4.843,0.134 7.644,0.686 1.911,0.367 2.199,0.446 3.363,0.931 l 1.14,-0.378 -5.671,-17.047 3.837,-2.759 -0.327,-0.983 -12.097,4.025 0.326,0.981 4.53,-0.023"
       style="fill:#ffffff;fill-opacity:1;fill-rule:nonzero;stroke:none"
       id="path10" /><path
       d="m 118.713,1.685 0.687,5.879 1.48,-0.173 1.041,-4.289 c 0.85,-0.225 1.497,-0.384 2.772,-0.533 2.508,-0.293 3.867,-0.077 5.257,0.761 1.353,0.884 2.271,2.319 2.463,3.964 0.38,3.247 -1.641,5.567 -5.177,5.98 l -1.357,0.159 0.216,1.85 0.493,-0.057 c 3.906,-0.456 6.04,1.045 6.444,4.498 0.365,3.125 -1.252,4.98 -4.623,5.374 -0.987,0.115 -2.353,0.192 -3.19,0.165 l -2.417,-4.636 -1.439,0.168 0.668,5.715 c 3.134,0.425 6.069,0.583 7.878,0.372 5.098,-0.596 7.954,-3.264 7.521,-6.964 -0.388,-3.33 -3.098,-5.473 -7.315,-5.896 4.453,-0.771 7.043,-3.574 6.615,-7.233 -0.538,-4.604 -4.995,-7.085 -11.368,-6.34 -1.768,0.206 -2.791,0.367 -5.995,1.117 l -0.654,0.119"
       style="fill:#ffffff;fill-opacity:1;fill-rule:nonzero;stroke:none"
       id="path12" /><path
       d="m 150.103,8.311 0.672,1.112 2.023,3.296 2.176,3.81 2.531,4.39 0.383,0.707 1.311,-12.349 z m 10.031,-7.842 3.499,0.371 -0.652,6.133 3.87,0.411 -0.284,2.676 -3.87,-0.412 -1.87,17.618 -1.646,-0.175 -12.516,-20.519 0.14,-1.316 12.678,1.346 0.651,-6.133"
       style="fill:#ffffff;fill-opacity:1;fill-rule:nonzero;stroke:none"
       id="path14" /><path
       d="m 179.402,4.208 -1.918,5.601 1.411,0.482 2.79,-3.42 c 0.862,0.164 1.515,0.301 2.729,0.716 2.389,0.818 3.521,1.599 4.414,2.955 0.839,1.381 1.048,3.071 0.512,4.638 -1.06,3.093 -3.884,4.314 -7.251,3.162 l -1.293,-0.443 -0.604,1.762 0.471,0.161 c 3.72,1.274 4.997,3.549 3.871,6.838 -1.018,2.977 -3.278,3.953 -6.489,2.854 -0.94,-0.322 -2.206,-0.843 -2.948,-1.229 l -0.181,-5.223 -1.37,-0.47 -1.864,5.443 c 2.643,1.737 5.223,3.145 6.947,3.735 4.855,1.663 8.583,0.489 9.789,-3.036 1.087,-3.173 -0.433,-6.274 -4.055,-8.476 4.35,1.226 7.896,-0.185 9.089,-3.67 1.502,-4.386 -1.449,-8.547 -7.519,-10.625 -1.684,-0.576 -2.676,-0.872 -5.891,-1.579 l -0.64,-0.176"
       style="fill:#ffffff;fill-opacity:1;fill-rule:nonzero;stroke:none"
       id="path16" /><path
       d="m 57.158,38.356 c -2.427,2.079 -2.688,5.835 -0.554,8.327 2.133,2.492 5.885,2.813 8.313,0.735 2.459,-2.105 2.72,-5.862 0.586,-8.354 -2.133,-2.493 -5.885,-2.814 -8.345,-0.708"
       style="fill:#ffffff;fill-opacity:1;fill-rule:nonzero;stroke:none"
       id="path18" /><path
       d="M 50.361,75.918 49.46,75.351 46.292,77.584 26.57,65.167 l 0.645,-3.823 -0.901,-0.568 -5.993,9.519 0.901,0.567 3.192,-2.27 19.721,12.417 -0.668,3.859 0.902,0.567 5.992,-9.517"
       style="fill:#ffffff;fill-opacity:1;fill-rule:nonzero;stroke:none"
       id="path20" /><path
       d="m 41.982,88.381 -0.994,-0.382 -2.674,2.808 -21.759,-8.347 -0.11,-3.876 -0.995,-0.382 -2.518,6.564 13.619,21.835 -16.786,-6.44 -0.111,-3.876 -0.994,-0.382 -3.418,8.912 0.994,0.38 2.689,-2.846 24.543,9.415 0.458,-1.194 -15.784,-24.992 19.332,7.416 0.095,3.915 0.995,0.382 3.418,-8.91"
       style="fill:#ffffff;fill-opacity:1;fill-rule:nonzero;stroke:none"
       id="path22" /><path
       d="m 28.17,132.377 -6.259,-0.213 -0.053,1.533 5.209,2.266 c 0.133,1.113 0.146,1.966 0.106,3.158 -0.135,3.96 -1.781,5.993 -4.762,5.892 -2.086,-0.072 -3.041,-0.828 -4.857,-3.832 l -2.541,-4.264 c -1.328,-2.305 -1.985,-3.052 -3.234,-3.904 -1.084,-0.719 -2.181,-1.055 -3.587,-1.103 -4.47,-0.152 -7.605,3.024 -7.772,7.921 -0.025,0.724 0.06,2.005 0.147,3.202 0.096,0.941 0.198,1.712 0.308,2.227 l 0.43,2.402 6.046,0.206 0.054,-1.576 -5.042,-2.175 -0.03,-0.342 c -0.048,-1.11 -0.081,-1.41 -0.055,-2.176 0.145,-4.258 1.533,-6.214 4.344,-6.119 1.959,0.067 2.788,0.735 4.562,3.737 l 2.699,4.61 c 1.653,2.784 1.897,3.134 3.062,3.984 1.164,0.849 2.64,1.326 4.258,1.38 4.727,0.162 7.87,-3.27 8.058,-8.805 0.045,-1.321 -0.143,-3.287 -0.507,-5.133 l -0.472,-2.403 -0.112,-0.473"
       style="fill:#ffffff;fill-opacity:1;fill-rule:nonzero;stroke:none"
       id="path24" /><path
       d="m 1.534,158.397 -1.047,0.196 2.071,11.012 1.047,-0.197 0.804,-3.792 16.748,-3.149 c 5.024,-0.945 7.653,0.815 8.566,5.672 0.961,5.109 -0.792,7.779 -5.649,8.692 l -16.957,3.188 -2.127,-3.242 -1.047,0.197 1.842,9.798 1.047,-0.197 0.796,-3.834 16.037,-3.015 c 4.271,-0.803 6.453,-2.341 7.65,-5.427 0.818,-2.105 0.916,-4.117 0.326,-7.257 -1.33,-7.077 -4.742,-9.773 -10.897,-8.616 l -17.083,3.212 -2.127,-3.241"
       style="fill:#ffffff;fill-opacity:1;fill-rule:nonzero;stroke:none"
       id="path26" /><path
       d="m 13.574,201.755 1.181,2.692 c 0.975,2.224 1.923,3.111 3.617,3.578 1.452,0.34 3.027,0.114 4.627,-0.588 1.639,-0.719 2.832,-1.709 3.527,-2.99 0.925,-1.709 0.86,-3.448 -0.304,-6.101 l -0.788,-1.794 z m 26.242,-6.675 -0.975,0.428 -3.146,-3.459 -8.739,3.835 1.198,2.731 c 2.534,5.774 1.16,10.703 -3.56,12.775 -2.224,0.975 -4.305,1.005 -6.299,0.065 -2.106,-0.983 -3.509,-2.695 -5.015,-6.128 l -4.331,-9.87 0.975,-0.428 2.804,2.678 21.341,-9.364 -0.072,-3.876 0.975,-0.428 4.844,11.041"
       style="fill:#ffffff;fill-opacity:1;fill-rule:nonzero;stroke:none"
       id="path28" /><path
       d="m 27.717,227.883 1.75,2.415 c 1.926,2.657 4.647,2.999 7.476,0.949 2.863,-2.076 3.579,-5.225 1.729,-7.778 l -1.675,-2.311 z m 11.56,-6.484 16.445,-0.396 4.001,5.519 -0.863,0.626 -3.192,-1.792 -14.512,-0.057 c 1.924,3.815 1.206,7.545 -1.898,9.795 -1.759,1.275 -3.743,1.66 -5.668,1.109 -1.926,-0.551 -2.977,-1.421 -4.952,-4.146 l -6.776,-9.348 0.862,-0.625 3.308,2.022 18.869,-13.677 -0.893,-3.772 0.863,-0.625 6.601,9.107 -0.863,0.625 -3.333,-2.057 -8.899,6.45 0.9,1.242"
       style="fill:#ffffff;fill-opacity:1;fill-rule:nonzero;stroke:none"
       id="path30" /><path
       d="m 57.842,242.773 7.702,-8.716 7.055,6.235 -1.159,5.173 1.053,0.931 3.866,-5.34 -15.26,-13.486 -0.706,0.799 1.694,3.487 -15.432,17.463 -3.669,-1.253 -0.705,0.799 15.133,13.372 4.231,-4.789 -1.053,-0.93 -4.604,2.185 -6.864,-6.065 7.589,-8.588 5.779,5.106 -1.454,3.833 0.958,0.846 6.178,-6.992 -0.958,-0.846 -3.596,1.882 -5.778,-5.106"
       style="fill:#ffffff;fill-opacity:1;fill-rule:nonzero;stroke:none"
       id="path32" /><path
       d="m 91.451,258.053 -1.674,22.953 7.267,3.565 0.47,-0.956 -2.595,-2.934 10.264,-20.923 3.908,0.257 0.469,-0.957 -10.098,-4.953 -0.469,0.956 2.594,2.934 -9.25,18.857 1.787,-25.603 -0.765,-0.375 -19,17.159 9.25,-18.857 3.909,0.256 0.469,-0.956 -8.568,-4.203 -0.469,0.956 2.556,2.915 -10.264,20.923 -3.869,-0.237 -0.47,0.956 7.536,3.696 17.012,-15.429"
       style="fill:#ffffff;fill-opacity:1;fill-rule:nonzero;stroke:none"
       id="path34" /><path
       d="m 120.181,275.437 4.112,12.81 1.63,-12.033 z m 7.326,-10.917 -2.961,-1.949 0.143,-1.056 18.998,2.573 -0.163,6.599 -1.519,-0.206 -1.952,-4.95 -8.486,-1.15 -1.504,11.104 6.839,0.927 1.945,-3.564 1.308,0.178 -1.252,9.245 -1.309,-0.177 -0.92,-3.994 -6.84,-0.926 -1.595,11.779 8.275,1.121 2.613,-4.376 1.477,0.2 -0.857,6.333 -16.719,-2.264 -9.96,-27.403 -2.961,-1.949 0.144,-1.055 9.245,1.252 -0.143,1.055 -3.378,1.134 3.402,10.435 6.797,0.92 1.333,-9.836"
       style="fill:#ffffff;fill-opacity:1;fill-rule:nonzero;stroke:none"
       id="path36" /><path
       d="m 175.337,285.963 4.383,-1.253 c 3.769,-1.076 5.741,-2.703 6.871,-5.728 0.96,-2.534 0.948,-5.367 -0.034,-8.808 -1.148,-4.014 -2.991,-6.59 -5.869,-8.293 -2.605,-1.516 -4.688,-1.673 -8.211,-0.667 l -3.892,1.111 z m -3.019,-26.698 c 4.097,-1.17 7.105,-1.188 10.008,-0.023 4.002,1.604 6.987,5.226 8.402,10.183 1.101,3.851 0.902,7.187 -0.568,10.265 -1.633,3.435 -4.096,5.203 -9.422,6.724 l -12.208,3.487 -0.292,-1.024 3.032,-2.417 -6.402,-22.408 -3.85,-0.451 -0.292,-1.024 11.592,-3.312"
       style="fill:#ffffff;fill-opacity:1;fill-rule:nonzero;stroke:none"
       id="path38" /><path
       d="m 190.372,252.835 0.496,0.942 3.862,-0.345 10.844,20.627 -2.473,2.985 0.496,0.943 9.955,-5.234 -0.495,-0.943 -3.9,0.366 -10.844,-20.628 2.51,-3.004 -0.495,-0.943 -9.956,5.234"
       style="fill:#ffffff;fill-opacity:1;fill-rule:nonzero;stroke:none"
       id="path40" /><path
       d="m 228.211,238.185 -5.052,-6.216 -0.537,0.217 c -3.329,1.443 -5.647,2.778 -7.895,4.606 -3.67,2.982 -5.398,5.923 -5.557,9.511 -0.152,3.528 1.078,6.865 3.684,10.072 3.037,3.736 6.813,5.883 10.847,6.118 3.734,0.204 7.039,-0.999 10.808,-4.063 2.248,-1.827 3.535,-3.148 5.426,-5.617 l 0.349,-0.449 -4.004,-4.927 -1.256,1.022 1.818,5.275 c -0.626,0.784 -1.333,1.468 -2.457,2.382 -3.439,2.794 -6.086,3.793 -9.191,3.351 -3.29,-0.401 -6.132,-2.208 -8.792,-5.482 -4.863,-5.983 -4.523,-11.915 0.965,-16.376 1.191,-0.967 2.468,-1.895 3.27,-2.327 l 4.433,5.455 -1.863,3.382 0.671,0.826 8.728,-7.094 -0.671,-0.827 -3.724,1.161"
       style="fill:#ffffff;fill-opacity:1;fill-rule:nonzero;stroke:none"
       id="path42" /><path
       d="m 226.976,226.914 0.861,0.626 3.308,-2.021 18.863,13.687 -0.895,3.772 0.862,0.626 4.128,-5.69 -7.512,-24.612 14.552,10.559 -0.895,3.772 0.861,0.626 5.606,-7.724 -0.862,-0.626 -3.334,2.056 -21.276,-15.439 -0.751,1.034 8.788,28.223 -16.757,-12.161 0.919,-3.807 -0.862,-0.625 -5.604,7.724"
       style="fill:#ffffff;fill-opacity:1;fill-rule:nonzero;stroke:none"
       id="path44" /><path
       d="m 244.635,200.557 0.967,0.446 2.853,-2.625 21.161,9.763 -0.145,3.874 0.967,0.446 4.711,-10.212 -0.966,-0.447 -2.872,2.664 -21.161,-9.763 0.164,-3.913 -0.967,-0.446 -4.712,10.213"
       style="fill:#ffffff;fill-opacity:1;fill-rule:nonzero;stroke:none"
       id="path46" /><path
       d="m 255.793,179.118 23.106,6.277 -1.686,6.209 -5.407,0.561 -0.402,1.481 6.742,1.831 6.188,-22.777 -6.742,-1.832 -0.391,1.439 4.378,3.22 -1.63,6.003 -23.106,-6.277 -0.267,-4.708 -1.027,-0.279 -3.396,12.499 1.028,0.279 2.612,-3.926"
       style="fill:#ffffff;fill-opacity:1;fill-rule:nonzero;stroke:none"
       id="path48" /><path
       d="m 281.731,152.393 c -1.342,-0.45 -2.012,-0.696 -3.771,-1.379 l -6.821,-2.68 -0.373,7.617 z m -12.22,-4.779 -8.659,-3.495 -1.733,3.157 -1.064,-0.051 0.529,-10.809 1.063,0.052 1.416,3.311 25.502,10.589 -0.116,2.384 -26.48,9.41 -1.735,3.2 -1.064,-0.052 0.456,-9.319 1.064,0.052 1.416,3.311 8.967,-2.803 0.438,-8.937"
       style="fill:#ffffff;fill-opacity:1;fill-rule:nonzero;stroke:none"
       id="path50" /><path
       d="m 259.22,126.356 23.626,-3.889 1.045,6.348 -4.685,2.757 0.249,1.514 6.895,-1.135 -3.833,-23.29 -6.895,1.135 0.242,1.472 5.321,1.11 1.01,6.138 -23.626,3.887 -2.197,-4.172 -1.051,0.173 2.103,12.781 1.052,-0.173 0.744,-4.656"
       style="fill:#ffffff;fill-opacity:1;fill-rule:nonzero;stroke:none"
       id="path52" /><path
       d="m 253.359,110.96 1.008,-0.344 0.255,-3.868 22.054,-7.531 2.568,2.904 1.008,-0.344 -3.635,-10.644 -1.008,0.345 -0.241,3.909 -22.054,7.53 -2.582,-2.945 -1.007,0.344 3.634,10.644"
       style="fill:#ffffff;fill-opacity:1;fill-rule:nonzero;stroke:none"
       id="path54" /><path
       d="m 248.804,94.793 5.526,-2.946 -0.723,-1.354 -5.643,0.644 c -0.672,-0.898 -1.111,-1.629 -1.672,-2.682 -1.864,-3.496 -1.455,-6.08 1.176,-7.483 1.842,-0.983 3.048,-0.804 6.123,0.887 l 4.333,2.421 c 2.303,1.331 3.245,1.65 4.754,1.762 1.298,0.08 2.416,-0.178 3.656,-0.839 3.947,-2.105 5.073,-6.424 2.768,-10.747 -0.341,-0.639 -1.056,-1.706 -1.73,-2.699 -0.554,-0.767 -1.027,-1.383 -1.381,-1.775 l -1.574,-1.864 -5.338,2.847 0.742,1.391 5.453,-0.639 0.199,0.281 c 0.595,0.937 0.774,1.18 1.134,1.856 2.005,3.76 1.783,6.149 -0.699,7.471 -1.729,0.923 -2.782,0.76 -5.819,-0.952 l -4.644,-2.642 c -2.824,-1.584 -3.211,-1.764 -4.643,-1.916 -1.434,-0.154 -2.95,0.172 -4.379,0.934 -4.173,2.226 -5.178,6.769 -2.571,11.656 0.621,1.165 1.769,2.775 3.006,4.191 l 1.612,1.844 0.334,0.353"
       style="fill:#ffffff;fill-opacity:1;fill-rule:nonzero;stroke:none"
       id="path56" /><path
       d="m 233.959,42.037 c -2.341,-2.175 -6.103,-2.007 -8.336,0.397 -2.232,2.403 -2.125,6.168 0.216,8.342 2.372,2.204 6.135,2.037 8.367,-0.367 2.234,-2.403 2.125,-6.168 -0.247,-8.372"
       style="fill:#ffffff;fill-opacity:1;fill-rule:nonzero;stroke:none"
       id="path58" /><path
       d="m 136.039,136.388 c 0,-0.111 0.044,-0.207 0.071,-0.31 -0.017,-0.109 -0.035,-0.219 -0.035,-0.32 0,-0.682 0.403,-1.167 0.768,-1.606 l 0.43,-0.565 c 0.54,-0.816 1.085,-1.161 1.965,-1.546 0.639,-0.277 1.204,-0.106 1.659,0.034 0.399,0.12 0.712,0.217 1.065,0.083 l 0.505,-0.344 0.852,-0.522 c 0.729,-0.223 1.264,0.069 1.738,0.325 l 0.92,0.356 1.007,0.068 1.348,0.113 0.344,0.051 c 1.067,0.157 2.075,0.305 2.434,0.83 0,0.001 0.114,0.541 0.114,0.541 l -0.696,0.727 -0.252,0.161 -1.128,0.495 -0.282,0.076 -0.619,0.288 -1.293,0.385 -1.17,-0.334 -0.781,-0.264 -1.503,0.087 -0.279,0.051 -0.801,0.369 -1.295,0.489 c -0.783,0.037 -1.28,-0.202 -1.853,-0.478 l -0.547,-0.258 -0.445,-0.142 c -0.681,-0.025 -0.812,0.049 -1.258,0.874 0.104,0.197 0.578,1.084 0.578,1.084 0.083,0.108 1.458,1.819 1.719,2.143 0.002,-0.002 0.03,-0.021 0.03,-0.021 0.005,0.004 0.009,0.021 0.014,0.027 l 0.005,-0.003 c 0.019,0.027 0.027,0.078 0.049,0.11 0.091,0.122 0.205,0.25 0.205,0.415 0,0.097 -0.033,0.195 -0.12,0.29 -0.281,0.302 -0.649,0.045 -0.769,-0.041 -0.386,-0.273 -2.694,-2.283 -2.694,-3.718"
       style="fill:#ffffff;fill-opacity:1;fill-rule:nonzero;stroke:none"
       id="path60" /><path
       d="m 133.342,146.805 0.881,0.092 -0.1,-0.11 c -0.387,-0.353 -0.692,-0.633 -0.572,-1.008 0.04,-0.123 0.162,-0.337 0.537,-0.381 0.561,-0.063 0.864,0.305 1.084,0.573 l 0.261,0.282 0.67,0.457 0.957,0.713 0.984,1.379 c 0.329,0.789 0.324,1.342 0.318,2.105 0,10e-4 -0.366,1.829 -0.366,1.829 l -0.07,0.215 -0.147,0.479 -0.576,1.41 c -0.405,0.696 -1.423,2.274 -2.115,1.889 -0.403,-0.23 -0.408,-0.609 -0.408,-0.791 l -0.006,-0.129 c -0.004,0 -0.372,-0.156 -0.372,-0.156 -0.619,-0.15 -1.168,0.165 -1.866,0.566 -0.578,0.332 -1.235,0.709 -2.032,0.838 -1.562,0.247 -2.513,0.24 -4.067,-0.041 -1.37,-0.243 -2.216,-0.656 -3.348,-1.634 -0.672,-0.577 -1.201,-1.035 -1.591,-2.013 l -0.672,-2.219 0.011,0.038 c -0.029,-0.322 0.104,-0.503 0.22,-0.596 0.107,-0.087 0.227,-0.116 0.345,-0.131 0.153,-0.417 0.743,-0.832 2.227,-1.766 0.736,-0.462 3.091,-0.887 4.369,-0.881 0.01,0 0.025,-0.006 0.034,-0.006 l 0.331,-0.003 c 0,0 0.001,0.06 0.001,0.068 0.039,0.006 0.079,0.012 0.112,0.019 0.01,0 0.04,0.003 0.054,0.003 0.08,-0.003 0.154,-0.024 0.234,-0.024 0.328,0 0.643,0.048 0.946,0.12 0.844,0.069 1.789,0.149 1.789,0.149 l 1.705,0.377 c 0.707,0.21 1.269,0.372 2.09,0.221 -0.104,-0.354 -0.235,-0.729 -0.408,-1.15 0,0.004 0.001,0.01 0.001,0.015 -0.036,0.354 -0.371,0.607 -0.723,0.57 l -0.836,-0.089 -1.61,-0.243 -2.314,-0.565 c -0.345,-0.084 -0.556,-0.432 -0.473,-0.777 0.086,-0.345 0.432,-0.555 0.778,-0.472 l 2.316,0.566 z m -9.128,2.977 c -0.423,0.267 -1.284,0.817 -1.602,1.099 0.036,0.25 0.092,0.468 0.153,0.684 0.04,0.078 0.081,0.15 0.12,0.228 l 0.753,1.188 c 0.403,0.421 0.716,0.746 1.049,1.019 0.065,0.04 0.154,0.079 0.226,0.119 -0.281,-0.581 -0.455,-1.224 -0.455,-1.918 0,-1.089 0.404,-2.074 1.054,-2.836 -0.534,0.103 -1.014,0.237 -1.298,0.417 z m 5.611,2.483 c -0.294,0 -0.536,0.255 -0.536,0.569 0,0.314 0.242,0.568 0.536,0.568 0.298,0 0.538,-0.254 0.538,-0.568 0,-0.314 -0.24,-0.569 -0.538,-0.569 z m 2.915,-2.516 -0.75,-0.17 c 0.543,0.731 0.88,1.632 0.88,2.622 0,0.675 -0.162,1.306 -0.43,1.874 0.33,-0.129 0.634,-0.261 0.902,-0.403 0.227,-0.189 0.455,-0.397 0.678,-0.651 0.819,-0.937 1.193,-1.815 1.41,-2.874 -0.001,-0.083 -0.021,-0.161 -0.025,-0.241 -1.078,0.18 -1.923,0.063 -2.665,-0.157"
       style="fill:#ffffff;fill-opacity:1;fill-rule:nonzero;stroke:none"
       id="path62" /><path
       d="m 122.831,161.337 c 2.035,0.454 3.222,0.526 5.284,0.324 l 1.022,-0.07 1.762,-0.227 2.064,-0.711 1.235,-0.48 c 0.331,-0.126 0.691,0.044 0.817,0.374 0.129,0.331 -0.05,0.708 -0.381,0.838 l -1.189,0.46 -2.229,0.764 -2.014,0.265 -0.961,0.066 c -2.196,0.216 -3.525,0.134 -5.69,-0.349 -0.347,-0.078 -0.564,-0.422 -0.486,-0.768 0.078,-0.345 0.42,-0.564 0.766,-0.486"
       style="fill:#ffffff;fill-opacity:1;fill-rule:nonzero;stroke:none"
       id="path64" /><path
       d="m 147.815,118.117 c -0.005,-0.003 -0.009,-0.01 -0.015,-0.013 -0.575,-0.468 -0.878,-0.702 -1.503,-0.881 l -0.369,-0.109 c -0.772,-0.231 -0.98,-0.291 -2.434,-0.063 l -1.072,0.25 -1.701,0.295 -0.439,0.016 c -0.857,0.037 -1.116,0.049 -1.236,-0.299 l -0.093,-0.27 0.237,-0.22 0.593,-0.533 c 0.896,-0.836 1.82,-1.699 4.021,-1.679 l 0.824,0.079 0.973,0.024 1.256,-0.549 1.219,-0.694 -0.23,0.985 -0.369,1.694 c -0.003,0.028 -0.003,0.055 -0.003,0.084 0,0.475 0.294,0.782 0.852,1.196 h -0.001 c 0.006,0.006 0.011,0.009 0.016,0.011 l -0.526,0.676"
       style="fill:#ffffff;fill-opacity:1;fill-rule:nonzero;stroke:none"
       id="path66" /><path
       d="m 154.123,123.054 v 0 l -0.171,0.334 c -0.305,0.686 -0.431,1.109 -0.152,1.503 l -0.579,0.61 c -0.042,-0.027 -0.073,-0.088 -0.115,-0.118 l -0.005,0.003 c -0.003,-0.003 -0.001,-0.007 -0.003,-0.012 -0.361,-0.274 -0.691,-0.705 -0.691,-1.477 0,-0.233 0.041,-0.504 0.106,-0.795 -0.309,-0.025 -0.6,-0.002 -0.971,0.102 l -1.538,0.741 -1.349,1.3 -0.54,0.584 c -0.43,0.416 -0.89,0.427 -1.296,0.433 l -0.426,0.027 c -0.053,0.007 -0.708,-0.02 -1.243,-0.132 -0.133,-0.014 -0.269,-0.027 -0.269,-0.027 0.032,0.003 0.051,-0.035 0.084,-0.042 -0.024,-0.006 -0.04,-0.015 -0.062,-0.023 0.003,0.006 0.019,0.038 0.019,0.038 l -1.009,-0.274 c -0.002,0 -0.281,0.042 -0.281,0.042 l -0.385,0.09 -0.432,0.079 -0.951,0.085 -1.578,-0.542 -1.031,-0.852 -0.476,-0.467 -0.465,-0.442 -1.105,-0.767 c -0.64,-0.205 -1.026,-0.179 -1.759,-0.07 l -0.947,0.262 c 0.278,0.687 0.09,1.277 -0.106,1.846 l -0.138,0.403 -0.834,-0.177 c 0.041,-0.336 0.071,-0.629 0.071,-0.887 0,-0.336 -0.089,-0.601 -0.245,-0.84 l -0.243,-0.304 c -0.496,-0.432 -0.943,-0.657 -1.383,-0.658 -0.207,0.035 -0.418,0.046 -0.612,0.129 h -0.003 l -0.338,-0.786 c 0.318,-0.138 0.636,-0.204 0.953,-0.204 0.806,-0.106 1.553,0.087 2.125,0.525 0.389,-0.445 0.807,-0.771 1.473,-1.047 1.042,-0.436 1.799,-0.374 2.76,-0.295 l 0.442,0.033 1.446,0.208 1.774,0.18 0.892,-0.227 1.299,-0.274 1.186,0.391 c 0.353,0.192 0.567,0.298 0.872,0.249 0,0 0.688,-0.194 1.105,-0.31 0.119,-0.038 0.243,-0.076 0.243,-0.076 0.102,-0.029 0.226,-0.035 0.354,-0.005 0.301,-0.045 1.659,-0.249 1.659,-0.249 1.49,-0.192 2.756,0.076 3.659,0.777 l 0.22,0.256 c 0.34,-0.322 0.789,-0.559 1.31,-0.636 0.826,-0.123 1.586,0.164 1.988,0.746 l 0.473,0.687 -1.325,-0.026 c -0.828,-0.028 -1.236,0.013 -1.457,0.378"
       style="fill:#ffffff;fill-opacity:1;fill-rule:nonzero;stroke:none"
       id="path68" /><path
       d="m 104.389,172.576 c -0.09,-0.006 0.09,-0.009 0,0"
       style="fill:#ffffff;fill-opacity:1;fill-rule:nonzero;stroke:none"
       id="path70" /><path
       d="m 164.073,155.908 c -1.24,0.393 -1.961,0.56 -3.216,0.585 -1.871,0.036 -3.04,0.06 -4.801,-0.591 -1.113,-0.414 -1.917,-0.756 -2.907,-1.733 l -0.514,-0.484 c -0.678,-0.619 -1.32,-1.203 -1.521,-2.343 -0.156,-0.894 -0.154,-1.443 0.009,-2.261 l 0.195,-0.982 1.159,1.65 c -0.035,-0.288 -0.066,-0.579 -0.077,-0.91 l -0.03,-0.897 0.858,0.261 c 1.125,0.337 1.573,0.194 2.253,-0.023 l 1.184,-0.307 1.586,-0.369 2.731,-0.443 c 0.002,0 0.7,-0.009 0.7,-0.009 1.116,-0.021 2.082,-0.037 3.344,0.527 l 2.693,1.555 -0.036,0.347 c 0,0.017 -0.005,0.031 -0.005,0.046 l 0.353,0.276 c 0.622,0.481 -0.115,2.733 -0.722,3.674 -1.096,1.698 -1.784,1.972 -3.236,2.431 z m -7.197,-6.768 -1.002,0.261 c -0.577,0.187 -1.205,0.301 -2.074,0.19 0.119,0.938 0.351,1.71 0.931,2.628 0.119,0.186 0.247,0.324 0.372,0.477 l 0.648,0.535 c 0.35,0.299 0.646,0.507 0.954,0.68 -0.382,-0.65 -0.615,-1.404 -0.615,-2.22 0,-0.962 0.317,-1.843 0.836,-2.563 z m 4.727,2.476 c -0.297,0 -0.538,0.254 -0.538,0.569 0,0.314 0.241,0.569 0.538,0.569 0.296,0 0.538,-0.255 0.538,-0.569 0,-0.315 -0.242,-0.569 -0.538,-0.569 z m 2.898,-2.864 c -0.569,-0.255 -1.049,-0.354 -1.553,-0.393 0.941,0.793 1.555,1.985 1.555,3.332 0,0.549 -0.11,1.069 -0.292,1.554 0.348,-0.237 0.692,-0.515 1.08,-0.878 0.542,-0.511 0.814,-1.347 0.985,-1.981 0.027,-0.186 0.057,-0.369 0.068,-0.568 -0.485,-0.28 -1.843,-1.066 -1.843,-1.066"
       style="fill:#ffffff;fill-opacity:1;fill-rule:nonzero;stroke:none"
       id="path72" /><path
       d="m 159.409,146.531 -1.023,0.401 -2.079,0.628 c -0.002,0 -2.724,-0.08 -2.724,-0.08 l -0.686,-0.093 c -0.352,-0.047 -0.606,-0.371 -0.559,-0.723 0.049,-0.352 0.364,-0.599 0.717,-0.553 l 0.706,0.096 2.375,0.08 1.748,-0.537 1.117,-0.437 c 0.33,-0.128 0.673,0.045 0.804,0.377 0.129,0.33 -0.064,0.712 -0.396,0.841"
       style="fill:#ffffff;fill-opacity:1;fill-rule:nonzero;stroke:none"
       id="path74" /><path
       d="m 210.85,212.645 c -0.079,0.023 -0.162,0.04 -0.244,0.05 l -1.131,0.148 c -1.098,0.228 -2.203,0.304 -3.302,0.264 -2.034,-0.072 -4.042,-0.579 -5.933,-1.467 0.047,0.17 0.123,0.336 0.158,0.509 0.496,2.402 -0.08,4.943 -1.598,7.519 -2.767,4.705 -8.728,9.529 -17.309,13.894 1.506,1.167 2.47,3.012 2.47,5.053 0,0.146 -0.006,0.291 -0.015,0.437 -0.116,1.683 -0.899,3.152 -2.048,4.219 -0.167,0.228 -0.367,0.436 -0.641,0.562 -0.042,0.019 -0.097,0.03 -0.139,0.051 0.01,-0.003 0.022,-0.002 0.031,-0.007 0,0 -0.195,0.075 -0.235,0.091 -0.643,0.397 -1.34,0.666 -2.105,0.801 -0.018,0.008 -0.156,0.058 -0.156,0.058 0.017,-0.005 0.023,-0.021 0.037,-0.028 -0.091,0.016 -0.173,0.058 -0.268,0.069 -9.104,3.097 -23.063,3.431 -38.421,0.916 -13.896,1.888 -25.746,1.292 -33.985,-1.589 -0.056,-0.007 -0.107,-0.034 -0.161,-0.042 0.014,0.007 0.02,0.023 0.035,0.029 0,0 -0.135,-0.051 -0.154,-0.059 -0.764,-0.136 -1.463,-0.404 -2.106,-0.803 -0.04,-0.015 -0.234,-0.089 -0.234,-0.089 0.01,0.004 0.02,0.001 0.03,0.005 -0.042,-0.018 -0.095,-0.031 -0.137,-0.05 -0.269,-0.126 -0.467,-0.332 -0.633,-0.556 -1.151,-1.067 -1.939,-2.537 -2.053,-4.223 -0.013,-0.198 -0.021,-0.393 -0.021,-0.586 0,-1.677 0.503,-3.124 1.383,-4.186 -10.124,-5.368 -16.689,-11.575 -17.81,-17.387 -0.224,-1.172 -0.241,-2.325 -0.007,-3.453 0.042,-0.214 0.133,-0.411 0.192,-0.619 -1.268,0.361 -2.568,0.558 -3.88,0.575 -1.02,0.014 -2.046,-0.076 -3.066,-0.287 0.125,0.021 -1.007,-0.128 -1.007,-0.128 -0.082,-0.01 -0.164,-0.026 -0.243,-0.049 -7.283,-2.059 -13.616,-8.184 -18.448,-17.022 -0.171,-0.18 -0.286,-0.402 -0.348,-0.663 -6.789,-12.802 -10.496,-31.059 -9.49,-50.871 0.821,-16.175 4.703,-31.244 11.226,-43.576 1.321,-2.476 2.299,-4.264 3.812,-6.5 -0.022,0.03 6.962,-10.799 6.962,-10.799 2.145,-3.178 6.3,-7.911 8.739,-9.958 -0.029,0.025 -0.204,0.21 -0.232,0.238 l 1.626,-1.565 1.012,-0.827 c 0.064,-0.053 0.208,-0.165 0.278,-0.208 l 2.318,-1.387 c 2.371,-1.226 3.912,-1.757 6.518,-1.595 0.393,0 0.782,0.032 1.17,0.09 2.818,0.413 5.447,2.304 6.977,5.149 0.028,0.055 0.16,0.324 0.16,0.324 0.202,0.41 0.362,0.739 0.495,1.03 3.212,-3.004 6.726,-5.92 10.5,-8.707 -0.591,-0.974 -0.959,-2.093 -0.959,-3.29 0,-0.906 0.191,-1.778 0.534,-2.578 -0.719,0.007 -1.433,0.017 -2.106,0.053 -0.001,0 -0.003,0 -0.004,0 -0.677,0 -1.327,-0.088 -1.956,-0.223 -3.79,-0.807 -6.584,-3.885 -6.584,-7.573 0,-2.219 0.905,-4.168 2.328,-5.595 1.025,-1.03 2.312,-1.798 3.763,-2.165 0.113,-0.068 0.185,-0.186 0.317,-0.227 1.24,-0.383 2.557,-0.674 3.909,-0.92 9.602,-1.754 21.885,-0.095 34.85,4.487 0.075,-0.041 0.134,-0.099 0.217,-0.128 14.541,-4.998 27.82,-6.143 37.469,-3.259 0.097,0.029 0.207,0.044 0.304,0.075 0.083,0.024 0.143,0.077 0.201,0.131 0.278,0.112 0.554,0.223 0.83,0.337 0.283,0.101 0.559,0.207 0.826,0.335 2.667,1.288 4.55,3.959 4.55,7.183 0,3.429 -2.423,6.314 -5.762,7.358 -0.85,0.265 -1.744,0.442 -2.689,0.442 -0.687,-0.036 -1.429,-0.049 -2.195,-0.053 0.341,0.797 0.532,1.67 0.532,2.574 0,0.926 -0.378,1.992 -0.807,2.892 3.694,2.74 7.134,5.619 10.297,8.587 0.09,-0.424 0.194,-0.832 0.302,-1.255 l 0.243,-0.966 c 0.033,-0.138 0.092,-0.297 0.159,-0.423 1.312,-2.44 3.567,-4.131 6.148,-4.742 0.62,-0.147 1.255,-0.236 1.904,-0.252 2.855,-0.442 4.439,0.228 6.519,1.299 0.093,0.052 2.411,1.438 2.411,1.438 0.069,0.044 0.214,0.157 0.276,0.21 l 1.093,0.891 1.599,1.567 c -0.033,-0.032 -0.249,-0.276 -0.283,-0.304 2.434,2.045 6.59,6.775 8.718,9.927 0.02,0.031 7.005,10.86 7.005,10.86 1.479,2.19 2.9,4.552 4.201,6.99 6.802,12.74 10.688,27.868 11.556,44.966 1.004,19.794 -2.695,38.035 -9.473,50.834 l -0.002,0.033 c -0.035,0.491 -0.273,0.874 -0.624,1.128 -4.799,8.588 -11.033,14.539 -18.186,16.561 z m -28.821,16.173 c 0.72,-0.051 1.402,-0.264 2.027,-0.631 0.084,-0.05 0.175,-0.059 0.262,-0.092 8.078,-4.825 12.831,-9.993 12.831,-14.193 0,-0.361 -0.035,-0.717 -0.106,-1.064 -0.284,-1.375 -1.17,-2.636 -2.572,-3.764 -2.073,-0.813 -4.099,-1.014 -6.02,-0.555 -0.114,0.026 -0.331,0.043 -0.448,0.046 l -1.774,0.052 -3.432,0.055 c -2.849,-0.31 -9.504,-1.475 -11.545,-5.463 0.02,0.026 0.017,0.049 0.038,0.076 -0.071,-0.091 -0.122,-0.192 -0.176,-0.295 -0.286,-0.409 -0.481,-0.805 -0.608,-1.191 -1.787,1.61 -4.051,2.715 -6.654,2.788 l -0.792,0.024 -1.476,-0.015 c -0.549,1.132 -1.071,2.725 -1.019,3.467 0.093,1.389 0.587,2.53 1.392,3.209 0.675,0.572 1.563,0.808 2.635,0.704 0.56,-0.068 1.591,-0.603 2.145,-0.891 l 0.445,-0.228 c 0.643,-0.329 1.414,-0.21 1.941,0.287 0.526,0.496 0.668,1.278 0.379,1.942 -0.399,0.91 -0.76,2.051 -0.754,2.395 0.084,1.252 0.643,2.389 1.57,3.197 0.873,0.758 1.976,1.131 3.107,1.05 0.722,-0.054 1.428,-0.292 2.035,-0.693 0.675,-0.442 1.569,-0.354 2.144,0.213 0.577,0.567 0.676,1.461 0.242,2.142 -0.678,1.062 -1.011,1.781 -0.943,2.773 0.095,1.377 0.705,2.622 1.722,3.506 0.955,0.831 2.165,1.237 3.404,1.149 z m -5.175,-78.708 c -0.036,0.078 -1.842,2.67 -1.842,2.67 -0.952,1.131 -1.698,2.02 -1.698,4.338 0,0.542 0.075,1.237 0.164,1.958 0.587,-0.048 1.159,-0.026 1.674,0.013 0.319,-1.524 1.096,-3.505 3.257,-4.754 0.156,-0.578 0.33,-1.225 0.33,-1.225 0.133,-0.473 0.259,-0.929 0.376,-1.383 0.037,-0.144 0.069,-0.288 0.105,-0.434 0.087,-0.364 0.158,-0.73 0.22,-1.1 0.022,-0.134 0.049,-0.27 0.067,-0.408 0.063,-0.486 0.103,-0.983 0.1,-1.5 -0.001,-0.049 -0.006,-0.099 -0.006,-0.147 -0.014,-0.547 -0.063,-1.114 -0.176,-1.722 -0.273,-1.448 -0.791,-2.742 -1.429,-3.611 -0.211,-0.291 -0.436,-0.532 -0.67,-0.717 -0.298,-0.24 -0.58,-0.37 -0.859,-0.405 -0.649,-0.079 -1.107,0.008 -1.357,0.259 -0.097,0.097 -0.132,0.271 -0.197,0.411 0.447,0.131 0.925,0.35 1.417,0.817 1.002,0.947 1.311,2.194 1.311,3.37 0,1.721 -0.663,3.296 -0.787,3.57 z m -4.185,-10.574 c 0.258,-0.259 0.596,-0.528 1.022,-0.756 -0.635,-4.937 -1.848,-10.948 -5.062,-16.275 -0.42,-0.698 -0.814,-1.306 -1.203,-1.869 -0.141,-0.143 -0.25,-0.3 -0.33,-0.478 -1.355,-1.889 -2.665,-3.199 -4.644,-4.967 -1.711,-1.527 -2.749,-2.308 -4.831,-3.638 l -2.663,-1.784 c -3.232,-2.218 -5.48,-3.729 -9.325,-3.848 l 1.194,0.212 1.618,0.337 c 0.348,0.072 0.649,0.423 0.577,0.77 -0.072,0.348 -0.331,0.582 -0.678,0.511 l -1.87,-0.385 -1.338,-0.255 -1.12,0.247 -2.172,0.393 c -0.347,0.064 -0.565,-0.177 -0.63,-0.525 -0.065,-0.348 0.283,-0.693 0.63,-0.759 l 1.801,-0.339 1.071,-0.224 c -0.043,0.001 -0.079,-0.003 -0.121,0 -2.044,0.065 -3.56,0.37 -4.905,0.847 -0.01,0.003 -0.02,0.009 -0.031,0.012 -1.334,0.477 -2.507,1.121 -3.863,1.868 l -3.665,1.891 -2.472,1.058 c -2.083,0.85 -3.461,1.41 -6.305,3.813 -2.919,2.466 -4.066,4.599 -5.838,8.149 -3.129,6.268 -4.015,10.416 -3.536,16.606 0.095,0.083 0.186,0.164 0.266,0.245 1.811,1.832 1.476,4.774 1.432,5.104 -0.079,0.593 -0.58,0.999 -1.127,1.239 -0.492,0.219 -1.129,0.069 -1.612,-0.207 -0.166,0.166 -0.239,0.472 -0.239,0.85 0,0.684 0.222,1.577 0.494,2.202 0.003,-0.021 1.331,1.852 1.331,1.852 1.463,1.735 3.12,3.703 2.256,9.527 -0.001,0 -0.19,0.524 -0.367,1.017 0.75,1.89 0.41,4.158 0.362,4.444 -0.09,0.542 -0.44,1.002 -0.931,1.248 -0.492,0.244 -1.077,0.235 -1.565,-0.017 -0.123,-0.063 -0.257,-0.085 -0.398,-0.121 v 0.003 c 0.142,0.055 0.297,0.116 0.297,0.116 0.653,0.23 1.679,0.608 2.519,1.598 l 0.092,-0.057 c 1.751,-0.903 4.505,-0.907 6.383,0.84 2.955,2.747 2.423,5.919 1.726,7.211 -0.115,0.214 -0.28,0.392 -0.469,0.535 0.182,-0.021 0.366,-0.048 0.54,-0.056 1.419,-0.076 3.908,0.084 6.216,1.595 1.279,-1.074 2.847,-1.74 4.244,-1.74 2.947,0 5.39,1.42 6.806,3.889 0.383,0.22 0.746,0.466 1.087,0.75 1.315,-2.991 3.999,-4.924 7.331,-4.924 1.882,0 4.307,1.03 5.706,2.761 1.5,-1.63 3.271,-2.415 4.843,-2.777 -0.047,-0.062 -0.116,-0.104 -0.155,-0.175 -0.695,-1.293 -1.231,-4.463 1.726,-7.212 1.875,-1.744 4.63,-1.741 6.38,-0.841 l 0.093,0.059 c 0.84,-0.992 1.867,-1.371 2.521,-1.598 0,0 0.155,-0.062 0.297,-0.117 0,-0.001 0,-0.003 0,-0.003 -0.141,0.036 -0.276,0.056 -0.4,0.12 -0.485,0.255 -1.07,0.261 -1.561,0.017 -0.491,-0.244 -0.841,-0.703 -0.933,-1.245 -0.111,-0.654 -0.509,-3.79 1.131,-5.703 l -0.167,-0.473 c -0.164,-1.114 -0.237,-2.083 -0.237,-2.94 0,-3.627 1.309,-5.184 2.492,-6.589 l 1.37,-1.93 c 0.246,-0.57 0.457,-1.44 0.457,-2.113 0,-0.381 -0.072,-0.691 -0.239,-0.859 -0.484,0.274 -1.121,0.425 -1.612,0.208 -0.547,-0.241 -1.049,-0.65 -1.127,-1.24 -0.044,-0.33 -0.381,-3.273 1.43,-5.105 z M 161.217,86.112 c -1.321,-1.296 -2.571,-2.518 -4.074,-3.451 -8.403,-5.165 -19.09,-10.63 -35.309,-13.168 -0.755,0.224 -1.281,0.949 -1.281,1.788 0,0.856 0.567,1.617 1.348,1.812 0.011,0.003 0.038,0.01 0.075,0.021 0.126,0.021 0.243,0.062 0.363,0.111 0.372,0.112 0.841,0.253 0.841,0.253 8.468,2.957 20.059,7.433 27.568,12.094 2.388,1.483 4.519,3.332 6.577,5.12 l 0.326,0.274 c 0.59,-2.056 2.094,-3.695 4.044,-4.427 z m 2.397,-2.448 1.379,1.236 c 0.408,-2.43 2.016,-4.418 4.181,-5.346 l -4.659,-3.019 -1.562,-0.967 C 147.038,65.69 127.222,60.449 113.157,59.669 c -0.792,0.561 -1.271,1.474 -1.271,2.481 0,0.776 0.354,1.514 0.9,2.072 0.169,0.095 0.314,0.228 0.446,0.383 0.513,0.368 1.125,0.597 1.764,0.597 21.103,1.973 34.047,8.459 43.947,14.544 1.832,1.136 3.275,2.55 4.671,3.918 z m -36.308,-3.659 c 0,-0.002 0.645,-0.379 1.442,-0.85 -2.115,-0.803 -4.307,-1.609 -6.628,-2.419 -0.001,0 -0.072,-0.02 -0.172,-0.052 -1.599,1.021 -3.173,2.075 -4.714,3.161 2.092,0.956 3.627,2.93 4.025,5.31 l 1.379,-1.234 c 1.395,-1.369 2.84,-2.783 4.668,-3.916 z m -2.747,6.788 c 1.951,0.73 3.452,2.372 4.042,4.427 l 0.325,-0.27 c 2.058,-1.789 4.189,-3.64 6.578,-5.123 1.398,-0.867 2.65,-1.593 3.918,-2.274 -2.038,-0.924 -4.242,-1.863 -6.612,-2.815 l -3.705,2.182 c -1.499,0.93 -2.749,2.153 -4.07,3.448 z m 24.382,1.69 c -1.596,-0.991 -3.493,-2.025 -5.618,-3.085 -2.081,1.018 -3.861,2.005 -6.012,3.34 -1.043,0.649 -2.055,1.398 -3.045,2.189 0.053,0.007 0.111,0.007 0.164,0.014 -0.024,0 -0.044,-0.012 -0.066,-0.012 0.132,0 0.263,0.019 0.391,0.051 4.591,0.214 8.267,4.075 8.267,8.836 0,0.838 -0.296,1.863 -0.672,2.833 0.666,-0.081 1.362,-0.144 2.134,-0.171 0.781,-0.024 1.503,0.003 2.194,0.063 -0.282,-0.841 -0.487,-1.717 -0.487,-2.503 0,-4.201 2.865,-7.711 6.69,-8.631 -1.275,-1.06 -2.577,-2.08 -3.94,-2.924 z m -38.354,55.543 c 0.491,-0.465 0.97,-0.684 1.416,-0.814 -0.065,-0.143 -0.1,-0.316 -0.197,-0.413 -0.25,-0.252 -0.707,-0.339 -1.356,-0.258 -0.339,0.041 -0.682,0.231 -1.052,0.582 -0.858,0.817 -1.572,2.37 -1.907,4.149 -0.13,0.692 -0.185,1.334 -0.185,1.949 0,1.667 0.413,3.122 0.871,4.739 l 0.331,1.216 c 1.39,1.209 1.969,2.71 2.248,3.937 0.009,0.036 0.024,0.08 0.033,0.118 0.075,-0.007 0.155,-0.01 0.232,-0.016 0.101,-0.009 0.202,-0.015 0.306,-0.022 0.123,-0.008 0.247,-0.008 0.372,-0.008 0.074,-0.002 0.145,-0.002 0.217,-0.002 0.125,0 0.25,0.007 0.376,0.013 0.095,0.007 0.189,0.014 0.285,0.025 0.102,0.01 0.204,0.018 0.307,0.036 0.173,0.024 0.345,0.06 0.515,0.102 0.03,0.006 0.058,0.008 0.086,0.016 0.045,-0.476 0.12,-1.013 0.12,-1.405 0,-2.312 -0.748,-3.2 -1.7,-4.333 l -1.807,-2.591 c -0.146,-0.323 -0.82,-1.923 -0.82,-3.656 0,-1.178 0.31,-2.418 1.309,-3.364 z m 8.632,72.326 c -0.148,2.175 -1.121,4.149 -2.743,5.557 -1.551,1.349 -3.519,2.015 -5.546,1.885 0.033,0.268 0.147,0.477 0.147,0.768 0,0.157 -0.005,0.316 -0.016,0.48 -0.155,2.291 -1.183,4.373 -2.892,5.858 -0.235,0.207 -0.498,0.362 -0.751,0.535 -0.277,0.195 -0.557,0.379 -0.853,0.534 0.225,0.113 0.415,0.271 0.569,0.471 1.602,0.75 3.285,1.486 5.057,2.198 -0.029,-0.006 -0.046,-0.027 -0.075,-0.033 l 1.227,0.264 c 0.687,0.051 1.356,-0.073 1.979,-0.328 0.466,-0.186 0.908,-0.435 1.299,-0.776 0.979,-0.85 1.568,-2.048 1.657,-3.374 0.08,-1.18 -0.255,-2.344 -0.941,-3.28 -0.419,-0.57 -0.36,-1.32 0.022,-1.916 0.381,-0.596 1.175,-0.875 1.87,-0.732 l 1.746,0.356 c 0.625,0.037 1.298,-0.172 1.837,-0.64 0.666,-0.579 1.074,-1.513 1.151,-2.627 0.026,-0.41 -0.352,-1.005 -0.718,-1.581 l -0.305,-0.487 c -0.377,-0.606 -0.227,-1.33 0.207,-1.897 0.434,-0.566 1.287,-0.753 1.97,-0.546 l 1.329,0.402 c 0.737,0.053 1.459,-0.191 2.027,-0.686 0.612,-0.532 0.981,-1.285 1.038,-2.116 0.043,-0.664 -0.12,-1.302 -0.456,-1.849 -0.597,-0.345 -1.179,-0.693 -1.713,-1.048 -0.361,0.877 -0.903,1.685 -1.619,2.36 -1.548,1.455 -3.773,2.158 -6.106,1.926 -0.147,-0.018 -0.289,-0.094 -0.437,-0.123 0.005,0.077 0.046,0.167 0.046,0.24 0,0.069 -0.002,0.138 -0.007,0.205 z m 14.637,13.688 c 6.159,1.513 11.694,2.503 16.486,2.937 7.858,0.709 15.48,0.686 22.245,-0.059 0.075,-0.039 0.136,-0.102 0.22,-0.132 0.867,-0.309 1.472,-1.132 1.536,-2.096 0.09,-1.322 -0.853,-2.468 -2.101,-2.556 -0.003,0 -0.438,0.011 -0.438,0.011 -0.043,0.004 -3.592,0.377 -3.592,0.377 -5.469,0.143 -10.495,-0.084 -15.074,-0.664 -5.858,-0.744 -11.616,-1.896 -16.905,-3.339 0.004,0.112 0.02,0.224 0.02,0.336 0,2.184 -0.91,4.008 -2.397,5.185 z m 36.248,-5.162 c 0.695,-0.072 1.298,-0.136 1.298,-0.136 -0.043,0.006 1.086,-0.029 1.086,-0.029 0.373,0.027 0.733,0.096 1.081,0.191 -0.021,-0.171 -0.073,-0.335 -0.085,-0.509 -0.01,-0.163 -0.015,-0.322 -0.015,-0.478 0,-0.293 0.112,-0.501 0.147,-0.769 -1.137,0.074 -2.245,-0.13 -3.283,-0.537 0.036,0.31 0.044,0.63 0.022,0.961 -0.032,0.462 -0.124,0.898 -0.251,1.306 z m -4.738,-9.613 c -0.138,0.03 -0.27,0.099 -0.406,0.117 -2.033,0.2 -3.826,-0.317 -5.218,-1.492 -0.958,-0.813 -1.645,-1.925 -2.087,-3.202 -0.627,0.42 -1.301,0.835 -2.012,1.247 -0.436,0.589 -0.657,1.304 -0.607,2.057 0.058,0.834 0.426,1.587 1.038,2.119 0.571,0.495 1.29,0.739 2.027,0.685 l 1.326,-0.4 c 0.684,-0.207 1.537,-0.019 1.972,0.546 0.264,0.346 0.404,0.75 0.402,1.15 0.913,0.047 1.827,0.093 2.735,0.104 0.086,0.003 1.29,0.078 1.29,0.078 0.047,0.001 0.095,0.012 0.141,0.019 -0.34,-0.814 -0.577,-1.677 -0.64,-2.589 -0.003,-0.068 -0.006,-0.136 -0.006,-0.208 0,-0.069 0.039,-0.158 0.045,-0.231 z m 1.354,-41.614 c 1.339,0.755 1.867,2.083 1.867,3.367 0,0.415 -0.085,0.81 -0.19,1.192 0.612,0.324 1.159,0.708 1.655,1.131 0.139,-0.379 0.259,-0.814 0.344,-1.312 0.008,-0.048 0.011,-0.107 0.019,-0.158 0.032,-0.211 0.063,-0.425 0.08,-0.658 0.025,-0.29 0.037,-0.598 0.037,-0.924 l -0.196,-1.401 c 0,0.01 -0.008,-0.022 -0.011,-0.037 -0.243,-0.774 -0.713,-1.407 -1.482,-1.984 l -1.259,-0.774 c -0.483,-0.248 -1.704,-0.415 -2.477,0.304 -0.392,0.365 -0.596,0.703 -0.779,1.031 0.775,-0.192 1.604,-0.221 2.392,0.223 z m -2.273,3.385 c 0.146,0.032 0.394,0.086 0.682,0.148 0.01,-0.073 0.023,-0.142 0.023,-0.217 0,-0.094 -0.042,-0.147 -0.074,-0.21 -0.162,0.04 -0.388,0.141 -0.631,0.279 z m 3.786,16.335 -0.166,0.06 c -0.498,0.178 -1.05,0.531 -1.498,0.244 -0.447,-0.284 -0.736,-0.348 -0.785,-0.874 l -0.157,-1.756 c 0.073,-0.408 0.112,-0.726 0.112,-0.978 0,-0.658 -0.283,-0.846 -0.919,-1.009 -0.684,0.628 -1.093,4.124 -1.29,5.835 l -0.222,1.834 c -0.045,0.333 -0.121,0.681 -0.212,1.036 -0.005,0.017 -0.01,0.038 -0.016,0.058 -0.283,1.076 -0.765,2.225 -1.409,3.356 0.548,0.004 1.274,0.01 1.274,0.01 l 0.81,-0.025 c 3.386,-0.098 6.2,-3.13 7.197,-6.169 l 0.283,-1.166 c 0.005,-0.017 0.019,-0.032 0.023,-0.052 l 0.107,-0.724 c 0,-10e-4 0.04,-1.411 0.054,-1.861 -0.765,0.966 -1.816,1.702 -3.186,2.181 z m -5.334,-7.191 c 0.788,-0.545 1.724,-0.706 2.71,-0.462 1.355,0.334 2.768,1.178 3.288,2.992 0.305,-0.533 0.55,-1.209 0.55,-2.286 0,-0.667 -0.083,-1.462 -0.273,-2.409 l -0.373,-0.937 c 0,0 -0.005,-0.013 -0.011,-0.024 -0.73,-1.3 -2.159,-1.96 -2.949,-2.239 l -1.717,-0.387 c -2.32,-0.124 -5.398,0.602 -6.869,4.778 0.005,-0.016 0.057,-0.214 0.064,-0.237 -0.01,0.032 -0.146,0.452 -0.265,0.822 l -0.065,0.201 c -0.002,0.021 -0.002,0.044 -0.005,0.064 l -0.473,2.563 c -0.05,0.479 -0.115,0.938 -0.191,1.372 -0.552,3.17 -1.779,5.243 -3.888,6.624 0.021,-0.018 -0.782,0.428 -1.201,0.66 -0.033,0.021 -0.052,0.051 -0.089,0.07 l -0.482,0.235 c -1.384,0.669 -2.145,1.037 -2.488,2.532 -0.066,0.288 -0.113,0.57 -0.15,0.844 -0.012,0.108 -0.014,0.207 -0.023,0.315 -0.013,0.161 -0.027,0.323 -0.03,0.477 0,0.048 0.008,0.093 0.008,0.142 0.006,0.37 0.051,0.71 0.128,1.013 0.121,0.206 0.559,0.957 0.695,1.187 0.099,0.073 0.213,0.155 0.213,0.155 3.482,1.984 6.569,-0.718 8.097,-2.506 1.696,-1.977 2.628,-4.172 2.802,-5.467 l 0.214,-1.77 c 0.411,-3.576 0.8,-6.952 2.773,-8.322 z m -44.804,-11.22 c 0.289,-0.438 0.605,-0.868 1.134,-1.165 0.787,-0.444 1.615,-0.414 2.389,-0.223 -0.183,-0.329 -0.387,-0.669 -0.778,-1.031 -0.774,-0.719 -1.994,-0.554 -2.477,-0.305 0,0 -0.171,0.106 -0.371,0.229 0.079,0.567 0.127,1.18 0.127,1.864 0,0.2 -0.017,0.424 -0.024,0.631 z m 2.774,1.941 c -0.031,0.063 -0.074,0.115 -0.074,0.209 0,0.232 0.067,0.493 0.069,0.496 0.129,0.406 0.209,0.784 0.29,1.166 0.593,-0.293 1.199,-0.523 1.799,-0.692 -0.257,-0.068 -0.496,-0.188 -0.7,-0.366 -0.443,-0.392 -1.053,-0.733 -1.384,-0.813 z m -0.075,6.371 c -0.354,0.448 -0.578,0.924 -0.687,1.456 -0.191,0.946 -0.273,1.741 -0.273,2.411 0,1.076 0.244,1.752 0.552,2.283 0.518,-1.814 1.93,-2.656 3.285,-2.991 0.986,-0.244 1.921,-0.087 2.711,0.462 1.974,1.37 2.362,4.747 2.774,8.321 l 0.11,0.954 c 0.019,0.153 0.104,0.819 0.104,0.819 0.134,0.997 0.663,2.317 1.455,3.615 0.45,0.74 4.544,7.147 9.444,4.356 0.821,-0.468 1.161,-1.488 1.012,-3.031 l -0.173,-1.103 c 0,0.007 0,0.012 0,0.012 0,0 0,-0.009 -0.001,-0.016 -0.221,-0.958 -0.615,-1.377 -0.971,-1.657 -0.076,-0.071 -1.498,-0.863 -1.498,-0.863 -2.098,-1.027 -4.971,-2.435 -5.777,-8.356 0,-0.002 -10e-4,-0.004 -10e-4,-0.004 l -0.069,-0.467 c -0.012,-0.081 -0.021,-0.141 -0.021,-0.141 -0.121,-1.143 -0.335,-2.176 -0.654,-3.155 -0.461,-1.409 -1.119,-2.53 -1.957,-3.339 -1.602,-1.54 -3.604,-1.773 -5.003,-1.697 -1.081,0.06 -3.222,0.691 -4.362,2.131 z m 18.67,9.862 c -0.069,-0.349 -0.143,-0.696 -0.223,-1.029 -0.594,0.227 -1.288,0.377 -2.094,0.431 0.536,1.072 1.229,1.717 2.049,2.178 z m -5.466,-10.944 c 0.504,-0.454 1.07,-0.833 1.687,-1.124 -0.084,-0.023 -0.159,-0.063 -0.255,-0.063 -0.454,0 -1.09,0.325 -1.713,0.777 0.093,0.133 0.19,0.268 0.281,0.41 z m 1.567,3.645 c 0.264,0.946 0.47,1.928 0.591,2.981 0.177,0.158 0.362,0.338 0.52,0.338 1.257,0 1.789,-0.377 1.889,-0.521 l -0.06,0.137 c 0.228,-0.525 0.729,-0.979 1.294,-1.08 0.561,-0.105 1.168,0.002 1.567,0.412 0.194,0.201 0.381,0.555 0.55,0.983 0.212,-0.179 0.431,-0.344 0.662,-0.501 -0.02,-0.336 -0.041,-0.65 -0.057,-0.933 l -0.012,-0.183 c -0.019,-0.284 -0.033,-0.535 -0.045,-0.726 -0.471,-1.165 -1.217,-2.036 -2.202,-2.486 -0.577,-0.261 -1.222,-0.396 -1.924,-0.396 -1.148,0 -2.357,0.924 -2.773,1.975 z m 6.977,9.352 0.032,0.252 c 0.053,0.412 0.157,1.218 0.194,1.512 0.438,0.437 0.798,0.934 1.083,1.492 0.009,-0.201 0.023,-0.415 0.04,-0.644 0.005,-0.071 0.011,-0.139 0.016,-0.211 0.019,-0.209 0.039,-0.423 0.066,-0.644 0.006,-0.073 0.013,-0.143 0.023,-0.217 0.071,-0.576 0.174,-1.16 0.314,-1.703 0.021,-0.074 0.043,-0.144 0.064,-0.214 0.057,-0.199 0.121,-0.385 0.191,-0.563 0.027,-0.07 0.051,-0.141 0.081,-0.204 0.099,-0.228 0.207,-0.437 0.333,-0.608 0.352,-0.487 0.931,-0.75 1.525,-0.7 0.597,0.047 1.123,0.403 1.393,0.937 0.335,0.669 0.483,0.83 0.534,0.873 0.092,0.007 0.405,-0.009 1.209,-0.281 0.178,-0.08 0.69,-0.356 0.69,-0.356 0.096,-0.074 0.233,-0.2 0.334,-0.444 0.011,-0.024 0.02,-0.057 0.029,-0.083 0.034,-0.097 0.055,-0.225 0.074,-0.36 0.008,-0.066 0.015,-0.129 0.019,-0.206 0.01,-0.204 0.007,-0.431 -0.03,-0.722 -0.061,-0.456 -0.243,-1.841 -2.67,-1.771 -1.077,0.034 -2.106,0.281 -2.983,0.717 -1.141,0.562 -1.907,1.418 -2.282,2.542 z m 3.373,-8.023 c 0.23,-0.051 0.46,-0.095 0.694,-0.131 0.154,-0.558 0.397,-1.171 0.78,-1.723 0.021,-0.034 0.049,-0.06 0.07,-0.092 0.162,-0.22 0.351,-0.418 0.563,-0.604 0.067,-0.057 0.132,-0.116 0.204,-0.169 0.273,-0.2 0.57,-0.377 0.928,-0.494 0.669,-0.22 1.401,-0.007 1.851,0.534 0.411,0.497 0.805,0.744 1.169,0.849 0.109,0.03 0.209,0.029 0.313,0.039 0.073,0.007 0.148,0.029 0.215,0.027 0.17,-0.003 0.333,-0.03 0.488,-0.063 0.31,-0.071 0.461,-0.189 0.592,-0.464 l 0.176,-0.563 c 0,-0.004 0.106,-1.304 0.106,-1.304 0,-0.984 -1.944,-2.288 -3.41,-2.288 -2.814,0 -4.739,2.249 -4.787,5.597 0,0 0.022,0.403 0.048,0.849 z m 19.517,34.518 c -0.267,-0.016 -1.021,-0.064 -1.021,-0.064 -5.141,-0.057 -10.449,-0.672 -15.692,-1.823 -2.745,-0.602 -5.335,-1.285 -7.761,-2.03 -0.295,-0.006 -0.576,-0.069 -0.825,-0.212 -0.096,1.613 -0.772,2.995 -1.874,3.98 4.82,1.255 10.028,2.255 15.31,2.927 3.643,0.462 7.599,0.676 11.77,0.669 0.198,-0.207 0.434,-0.384 0.728,-0.473 0.529,-0.162 0.821,-0.603 0.868,-1.314 0.004,-0.047 0.009,-0.107 0.009,-0.176 0,-0.415 -0.161,-1.173 -1.512,-1.484 z m -12.941,-4.644 c -0.488,-0.849 -0.806,-1.797 -0.874,-2.812 -0.005,-0.073 -0.005,-0.146 -0.008,-0.218 -1.113,0.51 -2.291,1.002 -3.514,1.475 l -0.242,0.584 c 0.535,0.127 1.054,0.261 1.602,0.382 1.011,0.223 2.023,0.408 3.036,0.589 z m -13.454,-3.5 c 0.684,0.237 1.404,0.467 2.123,0.695 1.531,-0.454 3.019,-0.94 4.432,-1.456 0.386,-0.537 1.022,-0.772 1.671,-0.641 2.389,-0.944 4.55,-1.959 6.408,-3.014 0.044,-0.024 0.084,-0.052 0.128,-0.072 1.324,-0.757 2.494,-1.531 3.468,-2.312 0.035,-0.194 0.08,-0.391 0.129,-0.591 -3.181,2.438 -6.738,2.899 -9.947,1.137 -0.087,-0.014 -0.172,-0.013 -0.259,-0.044 -1.067,-0.367 -2.102,-0.961 -3.06,-1.732 -0.465,1.026 -1.176,1.863 -2.164,2.425 -4.736,2.701 -9.509,0.33 -12.69,-3.599 -0.716,0.196 -1.548,0.34 -2.439,0.427 0.657,1.176 0.903,2.254 0.98,3.087 0.755,0.598 1.627,1.183 2.577,1.755 0.354,0.074 0.693,0.23 0.947,0.521 0.023,0.027 0.037,0.058 0.06,0.084 1.663,0.919 3.594,1.791 5.721,2.613 0.741,-0.223 1.517,0.048 1.915,0.717 z m -11.764,-12.283 c -0.513,-1.002 -0.888,-1.985 -1.112,-2.901 -0.084,-0.316 -0.149,-0.622 -0.187,-0.916 0,-0.003 -0.088,-0.699 -0.088,-0.699 -0.021,-0.163 -0.135,-1.133 -0.135,-1.133 -0.195,-1.713 -0.606,-5.207 -1.29,-5.835 -0.635,0.162 -0.922,0.333 -0.922,0.993 0,0.251 0.039,0.576 0.116,0.994 l -0.158,1.755 c -0.048,0.527 -0.337,0.59 -0.784,0.875 -0.446,0.286 -0.999,-0.068 -1.499,-0.244 l -0.166,-0.059 c -0.445,-0.155 -0.85,-0.345 -1.231,-0.552 -0.121,-0.065 -0.226,-0.138 -0.339,-0.21 -0.255,-0.156 -0.496,-0.324 -0.719,-0.508 -0.11,-0.088 -0.215,-0.181 -0.317,-0.275 -0.214,-0.204 -0.411,-0.423 -0.59,-0.651 -0.07,-0.09 -0.147,-0.169 -0.21,-0.262 -0.229,-0.327 -0.43,-0.679 -0.595,-1.057 -0.03,-0.068 -0.049,-0.148 -0.075,-0.217 -0.128,-0.32 -0.235,-0.656 -0.318,-1.011 -0.032,-0.14 -0.056,-0.291 -0.082,-0.439 -0.055,-0.31 -0.094,-0.631 -0.118,-0.967 -0.013,-0.164 -0.025,-0.324 -0.029,-0.492 -0.002,-0.096 -0.017,-0.183 -0.017,-0.28 0,-0.26 0.03,-0.541 0.047,-0.813 0.011,-0.179 0.013,-0.351 0.031,-0.537 0.056,-0.564 0.138,-1.15 0.262,-1.765 0.015,-0.074 0.053,-0.14 0.071,-0.212 -0.607,-0.217 -1.148,-0.612 -1.618,-1.192 -0.009,-0.012 -0.016,-0.024 -0.024,-0.034 -0.205,-0.259 -0.397,-0.553 -0.576,-0.883 -0.041,-0.076 -0.083,-0.149 -0.121,-0.226 -0.184,-0.364 -0.359,-0.757 -0.511,-1.2 l -0.654,-2.238 c -0.928,-3.471 -1.561,-4.922 -3.073,-4.922 -0.807,0 -1.516,0.791 -1.968,1.455 l -0.226,0.358 c -0.001,0.002 -0.842,1.767 -0.842,1.767 -0.079,0.209 -0.144,0.386 -0.203,0.551 -0.017,0.048 -0.03,0.09 -0.045,0.133 -0.043,0.124 -0.08,0.237 -0.111,0.344 -0.013,0.041 -0.026,0.083 -0.037,0.123 -0.032,0.118 -0.058,0.231 -0.075,0.34 -0.002,0.017 -0.007,0.029 -0.009,0.047 -0.018,0.124 -0.026,0.247 -0.028,0.378 0,0.033 0.003,0.066 0.004,0.1 0.001,0.112 0.009,0.231 0.023,0.358 0.004,0.049 0.008,0.095 0.015,0.145 0.01,0.084 0.028,0.185 0.04,0.278 0.074,0.197 0.104,0.401 0.103,0.606 l 0.12,0.645 c 0.057,0.279 0.263,0.605 0.581,0.918 l 10e-4,0.001 c 0.085,0.083 0.17,0.127 0.258,0.198 0.934,-1.436 2.244,-1.443 3.041,-1.268 3.253,0.705 3.54,5.531 3.626,9.734 0.005,0.281 0.009,0.557 0.014,0.83 l 0.057,2.011 0.18,1.067 c 0.769,3.51 4.049,6.545 7.629,7.06 0.032,0.006 0.072,0.006 0.105,0.01 0.394,-0.112 0.802,-0.079 1.185,0.101 1.219,0.051 2.548,-0.026 3.593,-0.177 z m -9.308,-20.647 c 0,-0.223 -0.025,-0.493 -0.078,-0.805 -0.011,0.2 -0.057,0.381 -0.133,0.544 0.119,0.176 0.204,0.264 0.207,0.266 0,0 0.004,-0.003 0.004,-0.005 z m -6.858,10.969 c -0.005,-0.201 -0.009,-0.334 -0.009,-0.334 -0.028,-1.563 -0.127,-5.213 -0.724,-6.665 -0.083,0.21 -0.172,0.432 -0.172,0.432 -0.238,0.597 -0.68,0.786 -1.321,0.846 -0.171,0.016 -0.358,-0.03 -0.537,-0.051 0.044,0.238 0.076,0.486 0.159,0.69 l 0.425,1.033 c 0.835,2.047 1.427,3.303 2.182,4.139 -0.001,-0.036 -0.002,-0.057 -0.003,-0.09 z m -1.065,3.702 c -2.208,-1.364 -3.159,-3.692 -4.286,-6.456 l -0.418,-1.015 c -0.52,-1.253 -0.566,-2.545 -0.606,-3.686 l -0.026,-0.522 c -0.097,-0.119 -0.18,-0.241 -0.264,-0.361 -1.615,1.699 -3.473,3.903 -4.311,5.4 -1.769,3.164 -1.938,4.354 -2.312,6.959 l -0.14,0.975 c -0.252,1.399 -0.64,2.536 -1.187,3.933 -0.729,1.866 -1.694,3.553 -2.821,5.05 0.957,-0.015 1.908,0.036 2.846,0.232 0.136,0.003 1.92,0.05 1.92,0.05 l 2.959,0.072 c 4.544,-0.493 8.228,-2.026 8.95,-3.724 0.062,-0.147 0.144,-0.285 0.244,-0.409 0.257,-0.315 0.284,-0.473 0.34,-1.299 0,0 0.052,-0.551 0.091,-0.925 -0.081,-0.35 -0.664,-2.893 -0.979,-4.274 z m -6.273,-19.132 c -0.538,0.185 -0.977,0.625 -1.149,0.879 -0.123,0.183 -0.106,0.382 -0.197,0.577 0.333,-0.07 0.647,-0.073 0.95,-0.036 0.084,-0.462 0.215,-0.909 0.396,-1.42 z m -1.124,-5.551 c 0,0.7 -0.062,1.479 -0.169,2.326 0.397,-0.151 0.804,-0.247 1.225,-0.288 0.226,-0.043 0.454,-0.072 0.688,-0.058 l 0.171,-0.018 c 0.028,-0.002 0.048,-0.003 0.078,-0.006 -0.344,-1.078 -0.72,-2.195 -1.155,-3.256 -0.054,-0.132 -0.115,-0.255 -0.171,-0.385 -0.17,-0.395 -0.342,-0.786 -0.532,-1.158 -0.253,-0.494 -0.523,-0.96 -0.814,-1.389 -0.017,-0.025 -0.031,-0.054 -0.045,-0.078 -0.953,-1.375 -1.993,-2.138 -3.181,-2.328 -0.021,-0.004 -0.252,-0.049 -0.252,-0.049 -0.353,-0.034 -1.053,-0.038 -1.464,0.366 -0.108,0.106 -0.094,0.393 -0.166,0.56 0.35,-0.113 0.704,-0.218 1.116,-0.19 1.489,0.103 2.647,0.65 3.444,1.627 0.824,1.01 1.227,2.412 1.227,4.324 z m -0.335,-8.763 c 0.101,-0.49 0.168,-0.88 0.168,-1.105 0,-0.234 -0.084,-0.313 -0.175,-0.4 -0.029,0.02 -0.394,0.291 -0.394,0.291 -0.309,0.228 -0.673,0.256 -1.041,0.196 -0.009,0.087 -0.014,0.152 -0.02,0.209 0.509,0.21 0.997,0.481 1.462,0.809 z m -0.436,-15.206 c 1.077,0.826 1.675,1.63 2.006,2.402 0.011,-0.75 0.085,-1.54 0.244,-2.389 0,-0.003 0.001,-0.006 0.001,-0.009 0.225,-1.182 0.761,-3.165 1.935,-4.832 -0.125,-0.177 -0.282,-0.394 -0.282,-0.394 -0.255,-0.288 -0.649,-0.632 -1.071,-0.641 -0.381,-0.009 -0.692,0.253 -0.846,0.411 -0.092,0.097 -0.315,0.447 -0.345,1.612 -0.023,0.875 -0.838,1.665 -1.709,1.738 -0.029,0.002 -2.269,0.409 -2.797,2.01 0.307,-0.186 0.641,-0.33 1.012,-0.387 z m 1.254,6.843 c 0.455,-0.047 0.913,-0.045 1.364,0.004 -0.186,-0.72 -0.353,-1.461 -0.466,-2.243 -0.162,0.827 -0.491,1.578 -0.898,2.239 z m 2.906,4.109 c -0.094,-0.063 -0.325,-0.215 -0.325,-0.215 -0.937,-0.491 -2.11,-0.649 -2.692,-0.367 0.386,0.097 0.809,0.156 1.096,0.34 1.376,0.891 1.777,2.103 1.777,3.361 0,0.961 -0.232,1.949 -0.443,2.842 0,0 -0.138,0.664 -0.255,1.219 l -0.052,0.254 c 1.036,1.684 1.82,3.617 2.454,5.504 0.977,-0.616 1.913,-0.801 2.648,-0.801 0.371,0 0.712,0.042 1.038,0.099 -0.462,-0.481 -0.834,-1.146 -0.834,-2.175 0,-0.169 0.01,-0.349 0.031,-0.54 0.173,-1.618 1.001,-2.372 1.665,-2.72 0.419,-0.219 0.849,-0.276 1.267,-0.298 -0.048,-0.422 -0.129,-0.815 -0.291,-1.067 l -0.108,-0.142 c -0.514,-0.434 -2.006,-0.257 -2.724,-0.173 l -0.943,0.078 c -0.457,0.038 -0.838,-0.112 -1.187,-0.409 -0.346,-0.298 -0.489,-0.726 -0.523,-1.181 -0.129,-1.828 -0.623,-2.94 -1.599,-3.609 z m 66.776,24.622 c 0.035,-0.062 0.074,-0.12 0.112,-0.179 0.314,-0.482 0.701,-0.874 1.169,-1.154 0.056,-0.033 0.116,-0.065 0.177,-0.095 0.245,-0.127 0.505,-0.235 0.796,-0.298 0.307,-0.068 0.6,-0.087 0.877,-0.06 0.557,0.055 1.055,0.292 1.497,0.702 0.22,0.204 0.425,0.451 0.62,0.739 0.028,-0.042 0.05,-0.06 0.079,-0.105 l 0.595,-1.135 c 0,-0.005 0.248,-0.851 0.248,-0.851 0.025,-0.091 0.044,-0.166 0.069,-0.253 0.104,-0.375 0.185,-0.703 0.251,-1.017 0.019,-0.092 0.034,-0.183 0.05,-0.272 0.052,-0.301 0.085,-0.589 0.089,-0.872 0.001,-0.025 0.004,-0.051 0.004,-0.076 -0.002,-0.244 -0.061,-0.506 -0.103,-0.762 -0.029,-0.169 -0.024,-0.328 -0.072,-0.51 -0.005,-0.011 -0.012,-0.03 -0.012,-0.035 0,-0.003 0.003,0.003 0.01,0.023 l -0.458,-1.052 c -0.002,-0.006 -0.66,-0.845 -0.662,-0.849 h -0.003 c -0.352,-0.341 -0.757,-0.615 -1.177,-0.803 -0.21,-0.094 -0.423,-0.165 -0.634,-0.214 -0.213,-0.049 -0.423,-0.074 -0.628,-0.074 -0.59,0 -1.271,0.194 -1.977,1.681 0.004,0.036 0.009,0.073 0.015,0.108 0.1,0.688 0.217,1.501 0.217,1.501 0,0.674 -0.055,1.281 -0.132,1.857 -0.015,0.114 -0.028,0.225 -0.046,0.334 -0.09,0.559 -0.206,1.075 -0.35,1.542 -0.006,0.018 -0.012,0.036 -0.019,0.054 -0.32,1.015 -0.743,1.822 -1.185,2.458 0.064,0.171 0.129,0.333 0.177,0.467 0.119,-0.287 0.257,-0.551 0.406,-0.8 z m 2.028,9.324 c 0.756,-0.835 1.347,-2.089 2.183,-4.141 0,0 0.385,-0.94 0.41,-1 -0.039,0 -0.078,-0.002 -0.117,-0.005 -0.642,-0.061 -1.084,-0.247 -1.321,-0.845 l -0.306,-0.766 c -0.023,-0.074 -0.072,-0.211 -0.114,-0.332 -0.598,1.453 -0.697,5.103 -0.723,6.667 0,0 -0.009,0.291 -0.012,0.422 z m 3.475,-30.482 c -0.033,0.456 -0.176,0.885 -0.522,1.182 -0.349,0.297 -0.73,0.448 -1.187,0.412 l -0.929,-0.078 c -0.735,-0.083 -1.965,-0.226 -2.596,0.094 l -0.149,0.082 c -0.211,0.18 -0.322,0.661 -0.386,1.205 0.416,0.025 0.845,0.078 1.263,0.297 0.662,0.348 1.489,1.103 1.664,2.721 0.018,0.189 0.029,0.369 0.029,0.54 0,1.032 -0.37,1.698 -0.835,2.179 0.335,-0.063 0.678,-0.105 1.039,-0.105 0.913,0 1.835,0.229 2.707,0.627 0.62,-1.83 1.392,-3.694 2.397,-5.327 l -0.118,-0.567 c -0.059,-0.28 -0.116,-0.551 -0.153,-0.721 l -0.038,-0.186 c -0.209,-0.894 -0.441,-1.883 -0.441,-2.841 0,-1.26 0.399,-2.473 1.776,-3.362 0.281,-0.182 0.698,-0.236 1.076,-0.336 -0.518,-0.241 -1.464,-0.157 -2.366,0.231 -0.147,0.063 -0.307,0.133 -0.307,0.133 -1.204,0.633 -1.779,1.776 -1.924,3.82 z m 4.525,-7.674 c -0.146,-0.231 -0.286,-0.465 -0.42,-0.718 -0.057,0.22 -0.117,0.436 -0.177,0.652 0.027,0.001 0.048,0.012 0.074,0.015 0.179,0.002 0.349,0.031 0.523,0.051 z m -0.047,-7.585 c 0.11,0.585 0.169,1.138 0.204,1.675 0.298,-0.323 0.652,-0.647 1.08,-0.976 0.003,0 1.85,-0.479 1.85,-0.479 0.389,0.061 0.734,0.219 1.053,0.419 -0.468,-1.623 -2.806,-2.037 -2.833,-2.042 -0.873,-0.07 -1.692,-0.861 -1.713,-1.735 -0.031,-1.166 -0.251,-1.517 -0.347,-1.615 -0.15,-0.156 -0.464,-0.42 -0.845,-0.411 -0.172,0.003 -0.334,0.074 -0.489,0.164 0.951,1.298 1.671,3.029 2.04,5 z m 2.289,14.889 c -0.366,0.058 -0.728,0.033 -1.035,-0.194 0,0 -0.372,-0.276 -0.401,-0.295 -0.09,0.087 -0.175,0.167 -0.175,0.402 0,0.224 0.066,0.612 0.168,1.102 0.467,-0.33 0.955,-0.604 1.463,-0.813 -0.004,-0.055 -0.012,-0.119 -0.02,-0.202 z m -1.053,5.472 c -0.014,0.021 -0.027,0.051 -0.043,0.074 -0.293,0.43 -0.566,0.901 -0.82,1.396 -0.181,0.355 -0.344,0.732 -0.509,1.11 -0.062,0.148 -0.133,0.292 -0.197,0.443 -0.433,1.061 -0.808,2.175 -1.15,3.249 l 0.252,0.018 c 0.234,-0.015 0.462,0.015 0.685,0.057 0.423,0.04 0.831,0.136 1.227,0.288 -0.109,-0.846 -0.168,-1.628 -0.168,-2.329 0,-1.911 0.4,-3.31 1.225,-4.321 0.797,-0.978 1.956,-1.526 3.446,-1.628 0.411,-0.028 0.765,0.076 1.113,0.189 -0.069,-0.168 -0.057,-0.452 -0.165,-0.559 -0.406,-0.401 -1.102,-0.398 -1.483,-0.361 0,0 -0.212,0.039 -0.231,0.043 -1.188,0.194 -2.229,0.956 -3.182,2.331 z m -1.173,11.236 c 0.249,-0.005 0.506,0.03 0.768,0.096 -0.092,-0.202 -0.168,-0.406 -0.294,-0.593 0,0 -0.002,0 -0.002,-10e-4 -0.003,-0.006 -0.008,-0.012 -0.011,-0.016 -0.104,-0.15 -0.288,-0.368 -0.521,-0.572 0.029,0.231 0.039,0.459 0.048,0.684 0.012,0.099 0.031,0.204 0.031,0.298 0,0.036 -0.019,0.071 -0.019,0.104 z m -1.348,5.238 c -0.086,0.174 -0.168,0.338 -0.243,0.492 l -0.048,0.872 c -0.039,1.139 -0.087,2.431 -0.606,3.683 l -0.417,1.014 c -1.366,3.352 -2.5,6.045 -5.898,7.173 -0.026,0.085 -0.057,0.169 -0.086,0.255 -0.273,1.123 -0.612,2.527 -0.681,2.809 0.038,0.376 0.09,0.915 0.09,0.915 0.056,0.826 0.083,0.983 0.341,1.3 0.098,0.124 0.181,0.259 0.241,0.406 0.724,1.7 4.409,3.233 8.965,3.728 0,-0.003 2.938,-0.074 2.938,-0.074 0,0 1.791,-0.046 1.927,-0.049 1.533,-0.319 3.099,-0.326 4.68,-0.074 -0.864,-1.28 -1.614,-2.684 -2.21,-4.205 -0.547,-1.4 -0.934,-2.538 -1.177,-3.883 -0.007,-0.05 -0.148,-1.026 -0.148,-1.026 -0.374,-2.604 -0.543,-3.793 -2.313,-6.956 -0.889,-1.595 -3.426,-4.438 -5.355,-6.38 z m -3.843,49.006 c 0.161,-0.075 0.325,-0.151 0.485,-0.228 -0.14,-0.07 -0.289,-0.115 -0.426,-0.192 -0.017,0.141 -0.033,0.281 -0.059,0.42 z m -44.568,9.356 c 2.341,0.514 4.674,0.961 6.98,1.345 0.016,-0.002 0.033,-0.005 0.051,-0.007 0.328,-0.045 0.634,0.032 0.916,0.157 15.516,2.464 29.736,1.964 37.949,-1.455 0.812,-0.459 1.466,-1.179 1.534,-2.2 0.006,-0.069 0.009,-0.137 0.009,-0.206 0,-1.513 -1.117,-2.795 -2.573,-2.899 0,0 -0.432,0.003 -0.435,0.003 -0.005,0.004 -1.517,0.216 -1.517,0.216 -3.924,0.578 -8.182,0.899 -12.639,0.968 -4.297,0.066 -8.78,-0.102 -13.336,-0.513 -5.196,-0.47 -11.208,-1.563 -17.896,-3.242 0.033,0.166 0.09,0.323 0.11,0.492 0.036,0.326 0.057,0.65 0.057,0.97 0,1.335 -0.347,2.602 -0.987,3.719 -0.252,0.442 -0.537,0.863 -0.88,1.25 -0.208,0.235 -0.459,0.416 -0.692,0.622 1.101,0.268 2.214,0.531 3.349,0.78 z m -6.119,-11.838 c 0.259,-0.658 0.978,-1.084 1.686,-1.083 l 1.779,0.007 c 1.994,-0.261 2.54,-2.222 2.348,-3.819 -0.046,-0.403 -0.525,-0.911 -0.99,-1.401 l -0.388,-0.418 c -0.483,-0.521 -0.471,-1.258 -0.157,-1.897 0.315,-0.637 1.116,-0.984 1.823,-0.916 l 1.376,0.132 c 1.589,-0.2 2.452,-1.355 2.255,-3.012 0.002,0.008 -0.094,-0.216 -0.213,-0.502 -1.251,-0.471 -2.442,-0.96 -3.562,-1.468 -0.003,0.037 -0.003,0.07 -0.004,0.105 -0.119,1.748 -0.903,3.336 -2.207,4.47 -0.995,0.866 -2.219,1.308 -3.497,1.432 0.047,0.25 0.166,0.461 0.166,0.732 0,0.092 -0.004,0.185 -0.01,0.278 -0.138,2.031 -0.962,3.8 -2.321,4.982 -1.02,0.886 -2.277,1.332 -3.641,1.409 0.142,0.615 0.297,1.235 0.297,1.875 0,0.189 -0.005,0.382 -0.019,0.572 -0.133,1.986 -0.97,3.786 -2.314,5.185 -0.174,0.181 -0.323,0.379 -0.514,0.546 -0.22,0.191 -0.465,0.334 -0.7,0.498 1.966,0.668 4.016,1.305 6.141,1.912 0.009,0 0.018,-0.004 0.03,-0.004 1.219,0 2.287,-0.385 3.093,-1.062 0.154,-0.127 0.311,-0.244 0.443,-0.393 0.772,-0.867 1.116,-2.026 0.969,-3.259 -0.09,-0.751 -0.36,-1.45 -0.753,-2.069 -0.297,-0.198 -0.505,-0.474 -0.631,-0.797 -0.048,-0.049 -0.089,-0.107 -0.139,-0.155 -0.518,-0.48 -0.605,-1.223 -0.346,-1.88 z m -22.955,9.033 c 0.07,1.03 0.735,1.755 1.557,2.212 5.502,2.296 13.435,3.319 22.742,2.987 -6.2,-1.544 -11.979,-3.413 -17.186,-5.511 -0.114,-0.024 -0.2,-0.043 -0.2,-0.043 0.032,0.006 0.067,-0.003 0.1,0.003 -1.994,-0.804 -3.907,-1.64 -5.721,-2.506 -1.107,0.414 -1.305,1.669 -1.305,2.492 0,0.135 0.007,0.26 0.013,0.366 z M 91.398,222.11 c 2.101,2.161 4.997,4.382 8.6,6.552 0.168,0.039 0.338,0.081 0.494,0.171 0.622,0.366 1.304,0.579 2.026,0.633 0.258,0.015 0.513,0.003 0.767,-0.023 0.964,-0.09 1.881,-0.469 2.637,-1.127 1.017,-0.885 1.628,-2.13 1.721,-3.504 0.067,-0.994 -0.265,-1.714 -0.943,-2.779 -0.434,-0.681 -0.333,-1.572 0.242,-2.14 0.577,-0.567 1.47,-0.655 2.145,-0.21 0.616,0.407 1.301,0.636 2.033,0.69 1.131,0.083 2.235,-0.291 3.107,-1.048 0.929,-0.807 1.489,-1.946 1.574,-3.204 0.003,-0.335 -0.357,-1.479 -0.756,-2.39 -0.291,-0.664 -0.148,-1.447 0.38,-1.942 0.526,-0.497 1.293,-0.617 1.938,-0.285 l 0.453,0.23 c 0.552,0.287 1.578,0.821 2.167,0.89 1.32,0.131 2.565,-0.239 3.391,-1.015 0.729,-0.686 1.09,-1.638 1.047,-2.753 0.037,-0.669 -0.045,-2.358 -1.966,-4.083 -0.185,-0.019 -0.381,-0.036 -0.554,-0.059 -2.896,-0.418 -5.57,-1.986 -7.538,-4.166 l -0.014,0.161 c -0.06,0.882 -0.17,1.88 -0.935,2.957 -0.05,0.092 -0.095,0.186 -0.159,0.267 0.021,-0.028 0.019,-0.051 0.039,-0.076 -2.043,3.986 -8.696,5.151 -11.541,5.461 l -3.442,-0.055 -1.768,-0.052 c -0.117,-0.003 -0.335,-0.021 -0.449,-0.047 -1.921,-0.458 -3.946,-0.258 -6.017,0.556 -1.402,1.128 -2.291,2.388 -2.573,3.764 -0.071,0.349 -0.106,0.704 -0.106,1.064 0,2.277 1.387,4.873 4,7.562 z M 58.003,188.275 c 0.653,-1.652 1.657,-2.995 2.915,-3.998 1.544,-1.233 3.462,-1.95 5.654,-1.95 0.904,0 1.791,0.164 2.651,0.423 1.156,-3.408 3.911,-5.524 7.745,-5.524 1.853,0 3.586,0.632 5.063,1.673 1.28,-3.559 4.415,-6.104 8.12,-6.104 3.048,0 5.867,1.563 7.539,4.18 0.51,0.797 0.279,1.856 -0.52,2.366 -0.797,0.51 -1.855,0.276 -2.365,-0.522 -1.041,-1.625 -2.781,-2.597 -4.654,-2.597 -2.942,0 -5.337,2.756 -5.337,6.147 0,0.763 -0.503,1.434 -1.236,1.646 -0.731,0.213 -1.516,-0.084 -1.924,-0.73 -1.044,-1.649 -2.796,-2.633 -4.686,-2.633 -2.835,0 -4.586,1.633 -4.927,4.598 -0.067,0.573 -0.418,1.074 -0.934,1.335 -0.516,0.257 -1.128,0.24 -1.628,-0.051 -0.883,-0.511 -1.888,-0.78 -2.907,-0.78 -1.699,0 -3.122,0.612 -4.159,1.718 -1.034,1.1 -1.684,2.693 -1.838,4.657 0.01,0.007 0.081,1.518 0.088,1.666 4.29,7.804 9.817,13.208 16.145,15.103 0.064,0.019 0.128,0.045 0.192,0.064 0.243,0.031 0.963,0.126 0.963,0.126 6.215,1.281 12.613,-2.863 15.339,-9.83 0.483,-1.235 0.801,-2.161 0.995,-3.239 0,-0.009 0.13,-0.907 0.13,-0.907 0.395,-2.758 0.634,-4.424 2.713,-8.142 0.692,-1.24 1.898,-2.809 3.175,-4.284 -0.279,-0.158 -0.519,-0.388 -0.686,-0.675 -0.166,-0.284 -0.994,-1.751 -1.061,-2.753 -0.071,-1.106 0.219,-2.3 0.782,-3.392 -0.212,-0.712 -0.357,-1.434 -0.357,-2.176 0,-0.351 0.024,-0.704 0.072,-1.06 0.11,-0.822 0.153,-1.488 0.153,-2.029 0,-1.411 -0.293,-1.965 -0.454,-2.162 -0.074,-0.091 -0.283,-0.28 -0.912,-0.352 -0.134,0.087 -0.382,0.34 -0.59,0.699 -0.289,0.499 -0.859,0.741 -1.432,0.775 -0.572,0.034 -1.171,-0.295 -1.516,-0.752 -0.679,0.088 -1.373,-0.23 -1.722,-0.867 -1.072,-1.951 -3.075,-3.164 -5.23,-3.164 -3.319,0 -6.019,2.814 -6.019,6.274 0,0.868 -0.649,1.599 -1.511,1.701 -0.862,0.102 -1.665,-0.456 -1.867,-1.3 -0.614,-2.542 -2.946,-4.185 -5.942,-4.185 -2.752,0 -5.151,1.937 -5.832,4.71 -0.133,0.544 -0.521,0.986 -1.041,1.189 -0.519,0.204 -1.104,0.141 -1.569,-0.168 -1.004,-0.666 -1.721,-0.891 -2.84,-0.891 -1.133,0 -2.545,0.243 -3.804,1.611 -0.862,0.934 -1.655,2.392 -2.238,4.68 -0.009,0.035 -0.033,0.06 -0.044,0.093 0.945,3.488 2.071,6.759 3.348,9.783 z m -4.679,-15.426 c 0.777,-1.215 1.657,-2.098 2.58,-2.728 1.604,-1.093 3.329,-1.437 4.837,-1.437 1.089,0 2.022,0.225 2.937,0.578 1.571,-3.232 4.706,-5.421 8.345,-5.421 2.833,0 5.25,1.141 6.981,2.916 1.556,-3.169 4.673,-5.405 8.358,-5.405 2.278,0 4.433,0.863 6.118,2.335 0.293,-0.844 0.729,-1.449 1.14,-1.854 0.743,-0.73 1.727,-1.165 2.836,-1.301 l 0.096,-1.036 0.209,-1.938 c 0.191,-2.359 1.316,-4.078 2.139,-5.333 0.586,-0.897 0.89,-1.362 0.89,-1.723 0,-0.222 -0.151,-0.419 -0.383,-0.639 -0.221,0.271 -0.445,0.574 -0.575,0.763 l -1.139,1.177 c -0.419,0.435 -0.838,0.266 -1.424,0.129 -0.588,-0.137 -0.862,-0.925 -1.045,-1.501 l -0.337,-1.062 -0.501,-1.839 c -0.01,-0.143 -0.015,-0.284 -0.015,-0.425 0,-1.65 0.66,-3.09 1.925,-4.186 0.872,-0.756 1.93,-1.191 2.914,-1.475 0.131,-0.843 0.419,-1.857 1.19,-2.654 0.933,-0.964 2.134,-1.479 3.38,-1.453 0.916,0.02 2.277,0.348 3.561,1.794 0,0 0.127,0.178 0.299,0.415 0.451,-0.204 0.915,-0.349 1.397,-0.408 0.155,-0.019 0.297,-0.02 0.444,-0.029 -0.303,-6.142 0.782,-10.715 3.969,-17.098 0.345,-0.692 0.673,-1.327 0.998,-1.943 -0.522,-0.201 -1.082,-0.321 -1.655,-0.342 -2.107,0.63 -3.314,1.407 -4.851,4.127 -0.032,0.056 -0.066,0.113 -0.104,0.164 l -1.48,2.038 c -2.349,5.339 -7.42,9.024 -13.412,9.864 -1.304,6.862 -2.058,15.911 -1.814,22.146 0.077,0.247 0.17,0.49 0.223,0.748 0.193,0.925 -0.401,1.833 -1.327,2.025 -0.926,0.192 -1.834,-0.403 -2.026,-1.328 -0.475,-2.282 -2.442,-3.936 -4.682,-3.936 -1.843,0 -3.546,1.128 -4.334,2.872 -0.333,0.734 -1.134,1.135 -1.922,0.967 -0.79,-0.171 -1.352,-0.869 -1.352,-1.675 0,-3.004 -2.397,-5.266 -5.575,-5.266 -2.367,0 -4.191,2.607 -4.884,5.03 -0.217,0.756 -0.92,1.267 -1.707,1.239 -0.786,-0.026 -1.453,-0.587 -1.616,-1.356 -0.598,-2.815 -2.775,-4.781 -5.294,-4.781 -1.798,0 -3.368,1.059 -4.486,2.827 -0.783,1.241 -1.349,2.818 -1.585,4.667 -0.004,0.039 -0.026,0.065 -0.034,0.102 0.365,4.4 0.97,8.634 1.793,12.649 z m 47.039,-64.348 c 0,0 0.01,-0.018 0.011,-0.021 -0.144,-2.643 -2.202,-4.762 -4.768,-4.762 -0.515,0 -1.012,0.119 -1.498,0.285 -0.18,0.165 -0.363,0.332 -0.363,0.332 -0.471,0.432 -1.14,0.565 -1.739,0.349 -0.6,-0.219 -1.029,-0.748 -1.115,-1.38 -0.32,-2.332 -2.032,-3.722 -4.58,-3.722 -1.518,0 -2.659,0.467 -3.487,1.423 -0.055,0.065 -0.131,0.098 -0.193,0.151 -4.404,9.566 -5.082,18.54 -1.151,25.297 0.591,1.157 1.192,2.25 1.895,3.177 0.366,0.204 0.629,0.517 0.769,0.899 0.625,0.628 1.338,1.127 2.195,1.432 1.638,0.684 2.953,0.716 4.97,0.716 5.828,0 10.94,-3.222 13.023,-8.21 0.053,-0.122 0.117,-0.239 0.195,-0.347 l 1.501,-2.063 c 0.508,-0.891 1.013,-1.641 1.542,-2.286 0.282,-0.712 0.731,-3.008 0.731,-3.775 0,-2.775 -2.163,-5.034 -4.822,-5.034 l -0.814,0.152 c -0.293,0.055 -0.948,0.129 -1.23,0.03 l -0.21,-0.072 c -0.487,-0.169 -0.848,-0.585 -1.026,-1.068 -0.062,-0.18 -0.094,-0.371 -0.094,-0.563 0,-0.328 0.091,-0.663 0.258,-0.94 z m -24.224,1.771 c -0.318,0.702 -1.329,2.951 -1.329,2.951 0,0 -2.07,4.726 -2.07,4.727 0,0.004 -0.916,2.7 -0.916,2.7 -0.013,0.034 -2.037,5.886 -2.037,5.886 -2.433,8.217 -3.099,16.703 -3.259,24.354 1.271,-1.115 2.811,-1.843 4.609,-1.843 2.345,0 4.407,0.796 5.963,2.125 0.557,-5.987 1.793,-12.779 3.544,-19.486 -0.859,-1.138 -1.556,-2.389 -2.17,-3.593 -2.94,-5.051 -3.622,-11.177 -2.335,-17.821 z m 4.243,42.989 c 1.183,-0.698 2.521,-1.114 3.938,-1.114 1.592,0 3.091,0.499 4.373,1.336 0.135,-5.551 0.773,-12.024 1.737,-17.392 -1.934,-0.026 -3.495,-0.168 -5.328,-0.937 -0.584,-0.207 -1.108,-0.486 -1.605,-0.793 -1.608,6.557 -2.703,13.231 -3.115,18.9 z M 95.35,74.63 95.218,74.36 c -1.096,-2.032 -3.151,-3.382 -5.207,-3.382 -1.654,-0.101 -2.548,0.099 -3.97,0.777 -0.242,0.116 -0.495,0.241 -0.775,0.385 -0.003,0.008 -1.879,1.13 -2.132,1.281 -0.276,0.225 -1.118,0.915 -1.118,0.915 l -0.983,0.948 c -0.027,0.028 -0.202,0.213 -0.231,0.238 -2.207,1.851 -6.135,6.334 -8.084,9.221 0.019,-0.029 -6.964,10.802 -6.964,10.802 -1.439,2.128 -2.376,3.842 -3.644,6.217 -6.289,11.888 -10.034,26.463 -10.831,42.143 -0.108,2.143 -0.162,4.268 -0.162,6.367 0,0.699 0.012,1.391 0.025,2.081 0.495,-0.59 1.035,-1.112 1.622,-1.547 1.412,-1.047 3.068,-1.629 4.872,-1.629 2.069,0 3.951,0.809 5.454,2.141 0.143,-8.015 0.815,-16.986 3.411,-25.753 l 2.092,-6.052 c -0.013,0.033 0.92,-2.71 0.92,-2.71 0.015,-0.048 2.203,-5.052 2.203,-5.052 l 1.39,-3.085 c 1.992,-4.123 6.466,-10.774 9.429,-14.472 3.419,-5.837 8.021,-11.733 13.652,-17.387 -0.131,-0.74 -0.265,-1.015 -0.837,-2.177 z m 8.901,-0.513 c -0.182,0.168 -0.392,0.281 -0.61,0.355 -2.582,2.268 -4.976,4.593 -7.195,6.944 3.965,0.411 7.081,3.811 7.081,7.983 0,0.374 -0.089,0.733 -0.139,1.1 0.081,-0.002 0.136,-0.034 0.219,-0.034 4.208,0 7.59,3.429 7.791,7.694 0.58,-0.096 1.151,-0.152 1.69,-0.152 4.337,0 7.864,3.619 7.864,8.064 0,2.655 -1.273,5.138 -3.406,6.647 -0.772,0.544 -1.841,0.362 -2.387,-0.411 -0.547,-0.771 -0.363,-1.842 0.409,-2.387 1.225,-0.867 1.957,-2.307 1.957,-3.849 0,-2.555 -1.99,-4.637 -4.437,-4.637 -1.403,0 -2.077,0.231 -2.77,0.944 -0.612,0.632 -1.603,0.699 -2.293,0.151 -0.425,-0.336 -0.65,-0.836 -0.65,-1.343 0,-0.317 0.088,-0.638 0.271,-0.923 0,0 0.068,-0.108 0.137,-0.216 0.161,-0.488 0.262,-0.996 0.262,-1.518 0,-2.555 -1.991,-4.637 -4.438,-4.637 -1.035,0 -1.611,0.204 -2.375,0.843 -0.709,0.595 -1.731,0.489 -2.347,-0.202 -0.615,-0.692 -0.537,-1.779 0.136,-2.415 l 0.585,-0.552 c 0.288,-0.546 0.495,-1.35 0.495,-2.167 0,-2.556 -1.991,-4.637 -4.438,-4.637 -1.149,0 -2.24,0.459 -3.07,1.291 -0.163,0.165 -0.354,0.287 -0.555,0.371 -2.512,3.077 -4.686,6.177 -6.513,9.248 -0.049,0.206 -0.143,0.399 -0.274,0.582 0.353,-0.039 0.691,-0.099 1.06,-0.099 3.447,0 6.071,1.745 7.285,4.519 0.662,-0.174 1.318,-0.383 2.01,-0.383 4.137,0 7.425,3.194 8.013,7.274 4.48,0.081 8.109,3.817 8.109,8.431 0,0.224 -0.025,0.516 -0.059,0.83 0.459,-0.177 0.939,-0.345 1.469,-0.492 0.151,-0.044 0.305,-0.065 0.464,-0.065 1.255,0 2.49,0.297 3.604,0.825 1.024,-1.503 2.228,-2.875 3.937,-4.319 3.257,-2.752 5.007,-3.466 7.224,-4.37 l 2.335,-0.997 3.44,-1.775 c 1.308,-0.722 2.546,-1.391 3.949,-1.934 0.735,-1.342 1.505,-3.199 1.505,-3.883 0,-3.011 -2.345,-5.461 -5.232,-5.461 -0.141,0 -0.285,-0.019 -0.421,-0.052 -1.175,-0.3 -4.106,0.489 -4.854,0.975 -0.001,0 -0.004,0 -0.004,0.002 l -0.825,0.689 c -0.487,1.058 -1.229,1.989 -2.192,2.677 -0.773,0.545 -1.841,0.367 -2.391,-0.405 -0.547,-0.769 -0.368,-1.84 0.402,-2.388 0.271,-0.191 0.492,-0.434 0.691,-0.693 0.033,-0.459 0.236,-0.9 0.594,-1.22 0.068,-0.27 0.105,-0.55 0.105,-0.835 0,-1.828 -1.416,-3.316 -3.155,-3.316 -0.987,0 -1.899,0.472 -2.502,1.296 -0.457,0.622 -1.272,0.861 -1.993,0.586 -0.719,-0.275 -1.168,-0.999 -1.093,-1.766 l 0.04,-0.407 c 0.03,-0.326 0.156,-0.637 0.359,-0.895 0.57,-0.724 0.825,-1.416 0.825,-2.247 0,-2.069 -1.606,-3.753 -3.58,-3.753 -0.48,0 -0.93,0.158 -1.361,0.364 -0.194,0.148 -0.386,0.301 -0.579,0.451 -0.008,0.009 -0.011,0.019 -0.019,0.027 -0.026,0.026 -0.06,0.033 -0.089,0.057 -0.397,0.312 -0.803,0.618 -1.195,0.934 -0.737,0.592 -1.815,0.476 -2.409,-0.262 -0.594,-0.737 -0.477,-1.816 0.261,-2.408 0.325,-0.263 0.665,-0.518 0.994,-0.777 l 0.097,-0.153 c 0.062,-0.1 0.161,-0.165 0.241,-0.246 0.726,-0.839 1.193,-1.895 1.193,-3.034 0,-2.521 -1.962,-4.573 -4.373,-4.573 -1.061,0 -2.084,0.404 -2.88,1.134 z m 4.968,-4.232 c 3.201,0.921 5.568,3.862 5.684,7.407 1.176,-0.835 2.373,-1.647 3.583,-2.445 -0.839,-0.946 -1.36,-2.197 -1.36,-3.566 0,-0.838 0.204,-1.635 0.553,-2.35 -0.937,-0.111 -1.872,-0.22 -2.843,-0.312 -1.032,0.005 -2.015,-0.297 -2.899,-0.778 -0.923,0.674 -1.829,1.354 -2.718,2.044 z m 70.33,-13.427 c 2.336,-10e-4 4.934,-1.758 4.934,-4.375 0,-2.586 -2.005,-4.685 -4.472,-4.709 -0.05,-0.004 -0.174,-0.014 -0.174,-0.014 -0.196,-0.014 -0.321,-0.164 -0.492,-0.239 -8.064,-2.151 -18.811,-1.378 -30.761,2.219 1.234,0.501 2.471,1.026 3.71,1.579 4.189,1.865 8.397,4.011 12.565,6.43 3.653,-0.521 7.251,-0.833 10.414,-0.922 1.543,-0.041 2.993,-0.037 4.276,0.031 z m -9.948,3.77 c 1.547,0.984 3.07,1.987 4.546,3.019 0.126,-0.343 0.22,-0.658 0.22,-0.843 0,-0.995 -0.469,-1.893 -1.241,-2.457 -1.14,0.067 -2.319,0.16 -3.525,0.281 z m -3.061,2.109 c -8.117,-5.038 -16.441,-9.022 -24.458,-11.831 -13.401,-4.696 -25.936,-6.105 -35.174,-3.64 -0.17,0.075 -0.296,0.225 -0.491,0.24 0,0 -0.124,0.01 -0.173,0.013 -2.47,0.024 -4.473,2.124 -4.473,4.71 0,2.617 2.599,4.374 5.026,4.374 1.693,-0.093 3.54,-0.091 5.494,-0.009 14.579,0.607 35.663,6.035 52.47,16.463 l 1.557,0.965 5.044,3.266 c 0.178,-3.48 2.519,-6.355 5.679,-7.259 -3.287,-2.548 -6.793,-4.992 -10.501,-7.292 z m 20.057,31.766 c -0.636,0.56 -1.585,0.572 -2.235,0.026 -0.587,-0.492 -0.587,-0.492 -1.715,-0.492 -2.447,0 -4.439,2.082 -4.439,4.638 0,0.562 0.094,1.108 0.279,1.625 0.051,0.14 0.083,0.286 0.094,0.433 l 0.024,0.278 c 0.062,0.723 -0.337,1.404 -0.997,1.703 -0.66,0.301 -1.435,0.154 -1.939,-0.367 -0.642,-0.661 -0.992,-0.768 -2.505,-0.768 -2.446,0 -4.436,2.082 -4.436,4.638 0,1.543 0.731,2.982 1.957,3.848 0.773,0.546 0.957,1.615 0.41,2.388 -0.546,0.773 -1.615,0.956 -2.388,0.41 -2.134,-1.506 -3.406,-3.992 -3.406,-6.646 0,-4.447 3.526,-8.063 7.863,-8.063 0.596,0 1.152,0.039 1.698,0.116 0.218,-4.248 3.587,-7.659 7.785,-7.659 0.06,0 0.104,0.004 0.163,0.004 -0.051,-0.397 -0.084,-0.775 -0.084,-1.069 0,-4.171 3.114,-7.572 7.076,-7.983 -0.541,-0.573 -1.09,-1.144 -1.652,-1.713 -0.318,-0.166 -0.578,-0.414 -0.74,-0.744 -1.528,-1.516 -3.128,-3.014 -4.806,-4.487 -0.215,-0.075 -0.422,-0.192 -0.601,-0.355 -0.796,-0.731 -1.82,-1.135 -2.88,-1.135 -2.412,0 -4.375,2.051 -4.375,4.573 0,0.908 0.768,2.273 1.251,2.919 0.465,0.625 0.453,1.486 -0.032,2.094 -0.486,0.61 -1.319,0.817 -2.029,0.502 l -0.513,-0.225 c -0.088,-0.04 -0.174,-0.086 -0.256,-0.139 -0.198,-0.134 -0.198,-0.134 -0.667,-0.117 l -0.619,0.014 c -1.973,0 -3.579,1.682 -3.579,3.752 0,0.83 0.255,1.523 0.825,2.247 0.204,0.259 0.33,0.57 0.36,0.9 l 0.037,0.405 c 0.075,0.768 -0.374,1.489 -1.095,1.764 -0.719,0.273 -1.534,0.033 -1.991,-0.588 -0.602,-0.823 -1.514,-1.296 -2.501,-1.296 -1.74,0 -3.156,1.488 -3.156,3.317 0,0.285 0.039,0.566 0.106,0.837 0.357,0.318 0.563,0.759 0.596,1.217 0.197,0.262 0.42,0.502 0.689,0.694 0.771,0.549 0.95,1.619 0.401,2.388 -0.549,0.772 -1.617,0.951 -2.389,0.403 -0.963,-0.687 -1.708,-1.618 -2.193,-2.676 l -0.368,-0.308 c -0.005,-0.002 -0.011,-0.002 -0.014,-0.005 -0.828,-0.54 -1.782,-0.823 -2.76,-0.823 -2.886,0 -5.233,2.449 -5.233,5.46 0,0.811 0.609,2.351 1.228,3.45 2.195,0.835 4.055,2.087 6.051,3.456 l 2.569,1.721 c 2.236,1.429 3.418,2.318 5.267,3.972 1.602,1.428 2.851,2.65 4.037,4.089 0.959,-0.685 1.966,-0.747 3.2,-0.719 l 0.682,0.009 c 0.149,10e-4 0.322,0.022 0.466,0.064 0.54,0.151 1.029,0.323 1.497,0.506 -0.052,-0.318 -0.089,-0.612 -0.089,-0.844 0,-4.665 3.701,-8.46 8.247,-8.46 l 0.008,0.001 c 0.746,-3.885 3.935,-6.883 7.937,-6.883 0.53,0 1.028,0.191 1.541,0.292 1.059,-2.947 3.805,-4.791 7.683,-4.791 0.375,0 0.744,0.034 1.111,0.087 -1.9,-3.27 -4.199,-6.572 -6.868,-9.841 -0.19,-0.083 -0.37,-0.194 -0.524,-0.347 -0.83,-0.834 -1.923,-1.293 -3.072,-1.293 -2.446,0 -4.437,2.082 -4.437,4.639 0,0.652 0.209,1.622 0.326,2.085 0.169,0.263 0.424,0.659 0.424,0.659 0.184,0.284 0.274,0.606 0.274,0.927 0,0.477 -0.198,0.949 -0.579,1.286 z m 21.137,33.819 c -0.477,0.939 -1.017,1.924 -1.654,2.86 0.036,0.081 0.094,0.145 0.119,0.232 1.933,6.847 3.196,13.819 3.735,20.478 1.55,-1.308 3.596,-2.088 5.922,-2.088 1.974,0 3.633,0.883 4.971,2.189 -0.281,-9.223 -1.494,-17.514 -3.621,-24.699 -0.848,-2.861 -2.179,-7.129 -3.699,-11.222 v -0.002 c -1.283,-3.448 -2.44,-6.067 -3.439,-7.788 -0.258,-0.445 -0.557,-0.933 -0.867,-1.433 2.333,8.015 2.026,15.473 -1.467,21.473 z m -4.366,5.782 c -0.679,0.5 -1.438,0.922 -2.306,1.23 -1.536,0.646 -2.899,0.839 -4.504,0.893 1.136,5.885 1.788,12.124 1.877,17.917 1.252,-0.778 2.702,-1.237 4.237,-1.237 1.431,0 2.781,0.426 3.976,1.138 -0.387,-6.432 -1.504,-13.222 -3.28,-19.941 z m -3.542,-1.965 c 2.397,-0.854 3.683,-3.067 4.902,-5.457 3.945,-6.782 3.288,-15.685 -1,-25.133 -0.067,-0.057 -0.148,-0.09 -0.206,-0.159 -0.914,-1.055 -2.219,-1.663 -3.58,-1.663 -1.605,0 -4.339,0.432 -4.757,3.247 0,0.073 0,0.148 0,0.148 0,0.569 -0.281,1.099 -0.751,1.419 -0.47,0.318 -1.067,0.384 -1.595,0.174 l -0.416,-0.166 c -0.542,-0.213 -1.115,-0.323 -1.705,-0.323 -2.469,0 -4.436,1.975 -4.713,4.478 0.162,0.242 0.237,0.511 0.237,0.786 0,0.357 -0.12,0.723 -0.322,1.047 -0.36,0.577 -1.148,0.86 -1.82,0.762 l -1.327,-0.192 c -2.657,0 -4.82,2.26 -4.82,5.035 0.008,0.643 0.852,3.561 1.237,4.418 0.005,0.013 0.003,0.025 0.009,0.039 0.348,0.485 0.69,1.01 1.032,1.61 l 1.495,2.057 c 1.935,3.111 5.959,8.065 12.296,8.513 0.024,-0.007 0.038,-0.022 0.062,-0.027 0.31,-0.067 0.605,-0.019 0.886,0.071 1.999,0 3.309,-0.034 4.856,-0.684 z m 36.048,18.89 c 0,-2.098 -0.053,-4.223 -0.163,-6.366 -0.841,-16.59 -4.593,-31.236 -11.153,-43.527 -1.248,-2.334 -2.605,-4.592 -4.039,-6.714 -0.022,-0.03 -7.007,-10.862 -7.007,-10.862 -1.931,-2.86 -5.86,-7.341 -8.063,-9.191 -0.026,-0.024 -0.255,-0.279 -0.282,-0.305 l -0.866,-0.828 c 0,0 -0.904,-0.738 -1.183,-0.967 -0.168,-0.099 -2.226,-1.332 -2.226,-1.332 -1.105,-0.568 -1.816,-0.892 -2.64,-0.985 -0.498,-0.055 -1.037,-0.027 -1.73,0.084 -0.09,0.014 -0.181,0.021 -0.271,0.021 -2.127,0 -4.084,1.189 -5.163,3.091 -0.076,0.306 -0.185,0.739 -0.185,0.739 -0.242,0.932 -0.42,1.617 -0.42,2.578 0,0.302 0.027,0.648 0.064,1.021 4.053,4.134 7.58,8.398 10.488,12.682 0.189,0.098 0.363,0.228 0.51,0.402 3.92,4.625 8.965,11.65 11.485,15.99 1.097,1.886 2.338,4.683 3.689,8.316 v 0.001 c 1.554,4.183 2.909,8.533 3.773,11.444 2.202,7.439 3.458,15.991 3.756,25.47 1.442,-1.16 3.194,-1.857 5.109,-1.857 1.729,0 3.398,0.584 4.85,1.554 0.589,0.392 1.142,0.846 1.647,1.356 0.009,-0.603 0.02,-1.206 0.02,-1.815 z m -0.347,9.09 c 0,-0.011 -0.004,-0.018 -0.004,-0.024 0,-1.567 -0.668,-3.106 -1.673,-4.328 -1.174,-1.422 -2.816,-2.406 -4.493,-2.406 -2.519,0 -4.697,1.966 -5.293,4.781 -0.164,0.771 -0.83,1.331 -1.616,1.358 -0.786,0.026 -1.491,-0.486 -1.707,-1.241 -0.694,-2.422 -2.519,-5.028 -4.885,-5.028 -3.179,0 -5.577,2.261 -5.577,5.265 0,0.806 -0.564,1.506 -1.351,1.675 -0.789,0.169 -1.59,-0.233 -1.923,-0.969 -0.787,-1.742 -2.489,-2.869 -4.333,-2.869 -1.925,0 -3.644,1.227 -4.39,3.021 -0.032,0.1 -0.055,0.201 -0.104,0.293 -0.07,0.2 -0.141,0.404 -0.186,0.619 -0.192,0.927 -1.098,1.522 -2.025,1.33 -0.928,-0.192 -1.523,-1.099 -1.33,-2.026 0.08,-0.39 0.206,-0.76 0.338,-1.126 0.261,-6.917 -0.443,-14.951 -1.935,-22.329 -5.559,-0.65 -10.533,-4.105 -14.156,-9.939 0.071,0.105 -1.467,-2.013 -1.467,-2.013 -0.038,-0.052 -0.073,-0.108 -0.107,-0.163 -1.56,-2.765 -2.774,-3.529 -4.948,-4.163 -0.219,-0.002 -0.465,-0.005 -0.465,-0.005 -0.575,-0.013 -0.877,-0.016 -1.099,0.078 0.25,0.387 0.505,0.789 0.766,1.224 3.532,5.855 4.841,12.313 5.522,17.587 0.314,0.054 0.624,0.138 0.925,0.255 1.16,-1.093 2.337,-1.363 3.156,-1.382 1.246,-0.026 2.446,0.489 3.379,1.451 0.771,0.797 1.06,1.812 1.191,2.655 0.979,0.28 2.032,0.716 2.901,1.466 1.274,1.097 1.938,2.539 1.938,4.195 0,0.141 -0.006,0.282 -0.012,0.426 l -0.501,1.837 -0.34,1.065 c -0.183,0.576 -0.457,1.363 -1.046,1.501 -0.587,0.138 -1.007,0.304 -1.426,-0.131 l -1.135,-1.178 c -0.129,-0.185 -0.354,-0.489 -0.576,-0.759 -0.231,0.218 -0.384,0.415 -0.384,0.636 0,0.361 0.306,0.827 0.892,1.723 0.822,1.257 1.948,2.977 2.14,5.334 l 0.209,1.949 0.094,1.024 c 1.112,0.138 2.095,0.572 2.836,1.303 0.591,0.581 1.238,1.554 1.424,3.09 1.767,-1.928 4.244,-3.072 6.88,-3.072 3.635,0 6.805,2.092 8.383,5.219 1.731,-1.711 4.189,-2.729 6.956,-2.729 3.556,0 6.653,2.248 8.244,5.574 0.88,-0.413 1.843,-0.73 3.037,-0.73 1.607,0 3.282,0.45 4.778,1.297 1.029,0.582 1.974,1.351 2.755,2.29 0.816,-4.102 1.405,-8.424 1.743,-12.911 z m -9.112,32.638 c 0,-1.828 -0.771,-3.457 -1.976,-4.601 -1.066,-1.011 -2.468,-1.644 -4.019,-1.644 -0.946,0 -2.113,0.677 -2.965,1.17 -0.5,0.29 -1.112,0.309 -1.628,0.048 -0.517,-0.258 -0.867,-0.759 -0.932,-1.335 -0.363,-3.121 -2.183,-4.985 -4.87,-4.985 -1.89,0 -3.642,0.984 -4.686,2.634 -0.406,0.643 -1.192,0.941 -1.924,0.729 -0.732,-0.213 -1.236,-0.884 -1.236,-1.646 0,-3.39 -2.395,-6.147 -5.337,-6.147 -1.872,0 -3.612,0.972 -4.653,2.6 -0.511,0.797 -1.571,1.028 -2.367,0.518 -0.798,-0.51 -1.029,-1.569 -0.521,-2.365 1.675,-2.617 4.494,-4.18 7.541,-4.18 3.705,0 6.841,2.545 8.121,6.104 1.477,-1.039 3.209,-1.674 5.062,-1.674 3.693,0 6.453,2.234 7.649,5.739 0.834,-0.358 1.756,-0.636 2.746,-0.636 2.07,0 3.979,0.697 5.536,1.862 1.342,1.006 2.42,2.361 3.094,3.942 1.339,-3.186 2.501,-6.653 3.47,-10.35 -0.005,-0.035 -0.027,-0.063 -0.03,-0.098 -0.185,-1.831 -1.174,-3.274 -2.462,-4.239 -1.133,-0.851 -2.498,-1.334 -3.777,-1.334 -1.003,0 -1.769,0.386 -2.917,1.146 -0.465,0.308 -1.048,0.369 -1.569,0.167 -0.518,-0.204 -0.907,-0.645 -1.039,-1.187 -0.707,-2.879 -3.128,-4.97 -5.756,-4.97 -2.789,0 -5.01,1.409 -5.793,3.678 -0.309,0.893 -1.284,1.369 -2.178,1.06 -0.229,-0.08 -0.429,-0.204 -0.596,-0.357 -0.422,-0.276 -0.733,-0.708 -0.785,-1.245 -0.315,-3.205 -2.89,-5.625 -5.987,-5.625 -2.154,0 -4.157,1.213 -5.232,3.166 -0.456,0.828 -1.498,1.13 -2.326,0.676 -0.164,-0.09 -0.29,-0.218 -0.411,-0.348 l -0.02,0.026 c -0.345,0.462 -0.949,0.795 -1.525,0.761 -0.573,-0.034 -1.143,-0.276 -1.432,-0.774 -0.207,-0.361 -0.456,-0.611 -0.588,-0.698 -0.63,0.073 -0.84,0.261 -0.912,0.349 -0.163,0.198 -0.456,0.753 -0.456,2.163 0,0.541 0.044,1.207 0.155,2.03 0.049,0.356 0.072,0.71 0.072,1.061 0,0.739 -0.146,1.463 -0.359,2.176 0.563,1.092 0.854,2.287 0.782,3.392 -0.064,0.99 -0.894,2.464 -1.059,2.751 -0.101,0.17 -0.233,0.317 -0.379,0.448 1.577,1.73 3.14,3.628 3.912,5.012 2.079,3.718 2.317,5.384 2.712,8.143 l 0.139,0.956 c 0.184,1.025 0.502,1.952 0.987,3.19 2.725,6.967 9.124,11.111 15.215,9.85 0.082,-0.014 0.547,-0.074 0.866,-0.117 0.086,-0.011 0.168,-0.023 0.219,-0.03 6.39,-1.834 11.966,-7.247 16.295,-15.089 l 0.129,-1.873"
       style="fill:#ffffff;fill-opacity:1;fill-rule:nonzero;stroke:none"
       id="path76" /><path
       d="m 154.332,159.912 0.887,0.481 1.477,0.753 c 1.879,0.83 3.127,0.828 5.173,0.751 1.009,-0.038 1.714,-0.273 2.53,-0.545 l 1.574,-0.472 c 0.341,-0.102 0.666,0.1 0.768,0.438 0.102,0.341 -0.124,0.708 -0.463,0.81 l -1.47,0.441 c -0.873,0.292 -1.697,0.568 -2.892,0.613 -2.168,0.08 -3.606,0.08 -5.738,-0.861 l -1.583,-0.806 -0.855,-0.463 c -0.312,-0.169 -0.438,-0.564 -0.269,-0.874 0.17,-0.314 0.551,-0.435 0.861,-0.266"
       style="fill:#ffffff;fill-opacity:1;fill-rule:nonzero;stroke:none"
       id="path78" /></g></svg>
